<svg id="svg" version="1.1" xmlns="http://www.w3.org/2000/svg" xmlns:xlink="http://www.w3.org/1999/xlink" width="400" height="300" viewBox="0, 0, 400,300"><g id="svgg"><path id="path0" d="M227.356 197.523 C 227.247 202.351,227.158 208.501,227.157 211.189 L 227.157 216.077 229.932 215.990 L 232.708 215.904 232.648 208.415 C 232.584 200.422,232.246 197.558,231.485 198.562 C 231.260 198.858,231.073 199.450,231.067 199.878 C 231.062 200.307,230.788 200.902,230.458 201.200 C 230.120 201.506,229.857 202.125,229.857 202.615 C 229.857 203.094,229.734 203.410,229.583 203.317 C 229.432 203.223,229.240 203.317,229.157 203.524 C 229.073 203.731,228.994 203.522,228.981 203.058 C 228.967 202.577,228.828 202.295,228.657 202.401 C 228.477 202.512,228.342 202.070,228.318 201.293 C 228.297 200.582,228.239 199.662,228.189 199.250 C 228.139 198.837,228.031 196.360,227.950 193.745 C 227.868 191.131,227.745 188.936,227.677 188.868 C 227.609 188.800,227.465 192.694,227.356 197.523 M164.307 194.966 C 164.183 195.287,164.301 195.624,164.619 195.856 C 165.279 196.339,165.641 196.099,165.641 195.181 C 165.641 194.310,164.622 194.145,164.307 194.966 M170.034 194.899 C 170.135 195.162,170.038 195.350,169.800 195.351 C 169.576 195.352,169.765 195.598,170.220 195.899 C 170.675 196.199,170.973 196.519,170.882 196.610 C 170.791 196.701,170.921 196.853,171.170 196.949 C 171.948 197.247,171.947 196.694,171.169 195.549 C 170.424 194.454,169.705 194.041,170.034 194.899 M243.260 197.370 C 242.814 204.169,242.179 206.183,241.731 202.222 C 241.623 201.270,241.322 200.065,241.062 199.543 L 240.589 198.594 240.099 199.338 C 239.596 200.102,238.905 199.856,238.830 198.887 C 238.689 197.061,238.313 200.912,238.289 204.426 L 238.260 208.852 240.060 208.911 C 241.050 208.943,242.299 208.976,242.836 208.986 L 243.811 209.002 243.707 201.800 C 243.649 197.839,243.568 194.563,243.527 194.519 C 243.486 194.475,243.365 195.758,243.260 197.370 M205.701 196.185 C 204.704 196.328,203.945 197.946,204.501 198.741 C 205.121 199.625,205.105 202.211,204.478 202.451 C 204.218 202.551,203.860 202.985,203.683 203.417 C 203.365 204.191,203.358 204.185,203.128 202.965 C 202.823 201.344,201.595 199.944,201.052 200.598 C 200.434 201.343,200.060 201.125,200.258 200.135 C 200.363 199.612,200.324 199.293,200.167 199.389 C 200.016 199.482,199.796 199.253,199.677 198.879 C 199.468 198.222,199.453 198.220,199.227 198.800 C 199.097 199.130,198.982 199.231,198.971 199.025 C 198.930 198.297,198.395 198.661,198.200 199.550 C 198.091 200.045,197.899 200.450,197.774 200.450 C 197.648 200.450,197.392 200.788,197.204 201.200 C 197.016 201.613,196.672 201.950,196.441 201.950 C 196.209 201.950,195.948 202.221,195.862 202.552 C 195.753 202.967,195.549 203.094,195.202 202.961 C 194.893 202.842,194.756 202.553,194.847 202.209 C 194.927 201.901,194.870 201.725,194.721 201.818 C 194.571 201.910,194.449 201.535,194.449 200.985 C 194.449 200.355,194.226 199.793,193.848 199.469 C 193.518 199.187,193.248 199.097,193.248 199.270 C 193.248 199.444,193.124 199.509,192.972 199.415 C 192.821 199.321,192.471 199.470,192.195 199.746 C 191.844 200.097,191.630 200.145,191.483 199.908 C 191.337 199.670,188.952 199.559,183.559 199.540 C 178.980 199.523,175.844 199.398,175.844 199.231 C 175.844 198.576,175.298 199.032,174.824 200.084 C 174.510 200.778,173.963 201.372,173.412 201.616 C 172.458 202.039,172.381 202.003,170.688 200.375 C 169.967 199.681,169.724 199.710,168.764 200.600 C 167.415 201.850,165.763 201.346,166.166 199.807 C 166.280 199.369,166.144 199.250,165.526 199.250 C 165.095 199.250,164.741 199.385,164.741 199.550 C 164.741 199.715,164.540 199.850,164.295 199.850 C 164.006 199.850,163.780 200.274,163.656 201.050 C 163.325 203.119,161.140 201.814,161.140 199.548 C 161.140 199.136,160.436 199.174,160.000 199.610 C 159.458 200.152,159.568 201.379,160.261 202.516 C 160.654 203.160,160.775 203.636,160.594 203.817 C 160.412 203.999,160.229 203.977,160.094 203.757 C 159.952 203.528,159.585 203.740,159.010 204.385 C 158.040 205.471,157.949 206.025,158.599 206.884 C 158.842 207.204,159.040 208.055,159.040 208.775 C 159.040 210.078,160.007 212.358,160.765 212.843 C 160.971 212.975,161.140 213.246,161.140 213.446 C 161.140 213.887,165.280 217.953,166.017 218.235 C 166.305 218.345,166.542 218.575,166.542 218.745 C 166.542 218.915,166.802 219.055,167.120 219.055 C 167.439 219.055,167.902 219.257,168.149 219.505 C 168.397 219.752,168.780 219.955,169.000 219.955 C 169.221 219.955,169.905 220.225,170.521 220.555 C 171.207 220.923,172.214 221.155,173.121 221.155 C 174.067 221.155,174.771 221.326,175.073 221.628 C 175.742 222.296,181.511 222.406,182.284 221.765 C 182.646 221.464,183.762 221.286,185.781 221.205 C 188.049 221.114,188.747 220.988,188.747 220.670 C 188.747 220.434,189.053 220.255,189.457 220.255 C 189.847 220.255,190.510 219.985,190.930 219.655 C 191.349 219.325,192.026 219.055,192.434 219.055 C 192.841 219.055,193.343 218.852,193.548 218.605 C 193.754 218.357,194.078 218.155,194.269 218.155 C 194.459 218.155,194.847 217.884,195.129 217.554 C 195.412 217.224,195.850 216.954,196.103 216.954 C 196.573 216.954,201.049 212.699,201.052 212.250 C 201.052 212.114,201.458 211.571,201.952 211.044 C 202.446 210.517,202.851 209.820,202.851 209.496 C 202.851 208.882,204.301 206.452,204.667 206.452 C 204.783 206.452,204.956 205.743,205.052 204.876 C 205.148 204.010,205.410 202.254,205.636 200.975 C 205.861 199.696,205.981 198.650,205.902 198.650 C 205.823 198.650,205.978 198.407,206.246 198.111 C 206.912 197.375,206.541 196.065,205.701 196.185 M161.475 197.820 C 161.437 199.042,162.917 200.071,164.073 199.626 C 164.504 199.461,164.465 199.395,163.841 199.237 C 163.428 199.132,163.126 198.887,163.168 198.692 C 163.210 198.496,162.918 198.212,162.518 198.060 C 162.118 197.908,161.728 197.540,161.650 197.241 C 161.573 196.943,161.494 197.204,161.475 197.820 M218.856 198.465 C 217.957 199.239,218.261 200.320,219.270 199.933 C 219.543 199.829,219.905 199.976,220.129 200.282 C 220.477 200.759,220.537 200.703,220.719 199.733 C 221.100 197.702,220.343 197.187,218.856 198.465 M216.356 203.001 L 216.355 205.701 218.615 205.701 C 221.646 205.701,222.106 204.854,220.445 202.328 C 219.862 201.441,218.755 200.974,218.755 201.615 C 218.755 202.406,217.486 202.152,216.937 201.252 L 216.356 200.300 216.356 203.001 M164.644 202.748 C 164.535 202.857,164.597 203.127,164.781 203.348 C 164.964 203.570,165.064 203.761,165.003 203.773 C 163.589 204.055,163.541 204.040,163.541 203.299 C 163.541 202.732,163.698 202.551,164.191 202.551 C 164.549 202.551,164.752 202.639,164.644 202.748 M218.864 204.799 C 218.769 205.046,218.571 205.173,218.423 205.082 C 217.999 204.820,218.110 204.351,218.595 204.351 C 218.863 204.351,218.968 204.527,218.864 204.799 M170.143 207.398 C 170.143 207.538,169.670 207.652,169.092 207.652 C 167.910 207.652,167.810 207.479,168.567 206.738 C 169.097 206.219,170.143 206.658,170.143 207.398 " stroke="none" fill="#f95f6a" fill-rule="evenodd"></path><path id="path1" d="M189.856 76.954 C 189.516 77.293,188.768 77.419,187.090 77.419 C 185.042 77.419,184.773 77.485,184.633 78.020 C 184.516 78.466,184.224 78.620,183.493 78.620 C 182.896 78.620,182.442 78.796,182.337 79.070 C 182.212 79.395,181.702 79.520,180.495 79.520 C 179.288 79.520,178.778 79.645,178.653 79.970 C 178.535 80.278,178.054 80.420,177.134 80.420 C 176.040 80.420,175.758 80.533,175.631 81.020 C 175.513 81.471,175.222 81.620,174.459 81.620 C 173.756 81.620,173.443 81.759,173.443 82.071 C 173.443 82.371,173.143 82.521,172.543 82.521 C 171.943 82.521,171.643 82.671,171.643 82.971 C 171.643 83.274,171.340 83.421,170.715 83.421 C 170.039 83.421,169.744 83.584,169.629 84.021 C 169.511 84.472,169.220 84.621,168.457 84.621 C 167.755 84.621,167.442 84.760,167.442 85.071 C 167.442 85.349,167.160 85.521,166.707 85.521 C 166.302 85.521,165.863 85.700,165.731 85.919 C 165.599 86.138,165.255 86.404,164.966 86.510 C 164.677 86.616,164.441 86.910,164.441 87.162 C 164.441 87.454,164.164 87.622,163.682 87.622 C 163.264 87.622,162.844 87.824,162.749 88.072 C 162.654 88.320,162.441 88.522,162.276 88.522 C 161.840 88.522,160.551 89.807,160.545 90.248 C 160.542 90.454,160.338 90.623,160.090 90.623 C 159.842 90.623,159.640 90.825,159.640 91.073 C 159.640 91.323,159.373 91.523,159.040 91.523 C 158.706 91.523,158.440 91.723,158.440 91.973 C 158.440 92.221,158.237 92.423,157.989 92.423 C 157.739 92.423,157.539 92.690,157.539 93.023 C 157.539 93.357,157.339 93.623,157.089 93.623 C 156.842 93.623,156.639 93.826,156.639 94.074 C 156.639 94.324,156.372 94.524,156.039 94.524 C 155.706 94.524,155.439 94.724,155.439 94.974 C 155.439 95.221,155.236 95.424,154.989 95.424 C 154.739 95.424,154.539 95.691,154.539 96.024 C 154.539 96.357,154.339 96.624,154.089 96.624 C 153.841 96.624,153.638 96.827,153.638 97.074 C 153.638 97.324,153.372 97.524,153.038 97.524 C 152.708 97.524,152.438 97.712,152.438 97.942 C 152.438 98.172,152.236 98.438,151.988 98.533 C 151.740 98.628,151.538 98.913,151.538 99.165 C 151.538 99.418,151.335 99.625,151.088 99.625 C 150.792 99.625,150.638 99.921,150.638 100.490 C 150.638 101.103,150.463 101.401,150.038 101.512 C 149.707 101.599,149.437 101.884,149.437 102.147 C 149.437 102.410,149.235 102.626,148.987 102.626 C 148.687 102.626,148.537 102.926,148.537 103.526 C 148.537 104.126,148.387 104.426,148.087 104.426 C 147.837 104.426,147.637 104.693,147.637 105.026 C 147.637 105.426,147.437 105.626,147.037 105.626 C 146.575 105.626,146.437 105.826,146.437 106.495 C 146.437 106.989,146.243 107.437,145.986 107.535 C 145.739 107.630,145.536 107.898,145.536 108.131 C 145.536 108.363,145.334 108.722,145.086 108.927 C 144.839 109.133,144.636 109.757,144.636 110.314 C 144.636 110.928,144.399 111.565,144.036 111.928 C 143.706 112.258,143.436 112.798,143.436 113.128 C 143.436 113.462,143.236 113.728,142.986 113.728 C 142.674 113.728,142.536 114.042,142.536 114.747 C 142.536 115.375,142.363 115.831,142.086 115.937 C 141.761 116.062,141.635 116.569,141.635 117.750 C 141.635 119.126,141.539 119.420,141.035 119.580 C 140.553 119.733,140.435 120.034,140.435 121.110 C 140.435 122.024,140.292 122.504,139.985 122.622 C 139.638 122.756,139.535 123.335,139.535 125.163 C 139.535 127.069,139.447 127.532,139.085 127.532 C 138.712 127.532,138.635 128.096,138.635 130.808 C 138.635 132.835,138.514 134.124,138.319 134.189 C 137.728 134.386,137.449 136.674,137.429 141.485 L 137.409 146.287 136.351 146.962 C 135.768 147.333,135.027 147.637,134.703 147.637 C 134.380 147.637,134.037 147.839,133.942 148.087 C 133.847 148.335,133.514 148.537,133.201 148.537 C 132.889 148.537,132.633 148.679,132.633 148.852 C 132.633 149.025,132.161 149.654,131.583 150.248 C 130.752 151.104,130.533 151.571,130.533 152.484 C 130.533 153.310,130.405 153.638,130.083 153.638 C 129.703 153.638,129.632 154.318,129.632 157.953 C 129.632 161.422,129.721 162.340,130.083 162.641 C 130.330 162.846,130.533 163.463,130.533 164.012 C 130.533 165.017,131.593 166.542,132.292 166.542 C 132.480 166.542,132.633 166.744,132.633 166.992 C 132.633 167.239,132.821 167.442,133.051 167.442 C 133.281 167.442,133.542 167.632,133.631 167.864 C 133.720 168.096,134.207 168.376,134.713 168.488 C 135.220 168.599,135.634 168.882,135.634 169.116 C 135.634 169.471,136.711 169.542,142.086 169.542 L 148.537 169.542 148.537 168.492 C 148.537 167.759,148.673 167.442,148.987 167.442 C 149.611 167.442,149.618 165.092,148.996 164.853 C 148.325 164.596,148.318 137.910,148.989 137.240 C 149.337 136.891,149.437 135.984,149.437 133.170 C 149.437 130.168,149.521 129.487,149.927 129.191 C 150.231 128.969,150.475 128.220,150.571 127.216 C 150.657 126.327,150.909 125.417,151.132 125.194 C 151.355 124.971,151.538 124.258,151.538 123.609 C 151.538 122.762,151.664 122.431,151.988 122.431 C 152.328 122.431,152.438 122.064,152.438 120.930 C 152.438 119.848,152.555 119.430,152.856 119.430 C 153.380 119.430,153.638 118.777,153.638 117.455 C 153.638 116.743,153.776 116.429,154.089 116.429 C 154.336 116.429,154.539 116.241,154.539 116.011 C 154.539 115.781,154.741 115.515,154.989 115.420 C 155.252 115.319,155.439 114.870,155.439 114.338 C 155.439 113.838,155.572 113.428,155.735 113.428 C 155.898 113.428,156.228 112.956,156.470 112.378 C 156.711 111.800,157.051 111.328,157.224 111.328 C 157.397 111.328,157.539 110.923,157.539 110.428 C 157.539 109.827,157.689 109.527,157.989 109.527 C 158.240 109.527,158.440 109.261,158.440 108.927 C 158.440 108.597,158.631 108.327,158.866 108.327 C 159.100 108.327,159.381 107.922,159.490 107.427 C 159.599 106.932,159.879 106.527,160.114 106.527 C 160.348 106.527,160.540 106.324,160.540 106.077 C 160.540 105.570,161.580 104.426,162.041 104.426 C 162.206 104.426,162.341 104.224,162.341 103.976 C 162.341 103.728,162.534 103.526,162.770 103.526 C 163.007 103.526,163.286 103.256,163.391 102.926 C 163.496 102.596,163.775 102.326,164.011 102.326 C 164.248 102.326,164.441 102.123,164.441 101.875 C 164.441 101.628,164.644 101.425,164.891 101.425 C 165.139 101.425,165.341 101.223,165.341 100.975 C 165.341 100.728,165.510 100.523,165.716 100.520 C 166.174 100.514,167.442 99.218,167.442 98.757 C 167.442 98.574,167.649 98.425,167.901 98.425 C 168.154 98.425,168.439 98.222,168.534 97.974 C 168.629 97.727,168.894 97.524,169.124 97.524 C 169.354 97.524,169.542 97.339,169.542 97.112 C 169.542 96.885,169.947 96.618,170.443 96.519 C 170.971 96.414,171.343 96.150,171.343 95.881 C 171.343 95.559,171.652 95.424,172.393 95.424 C 173.127 95.424,173.443 95.288,173.443 94.974 C 173.443 94.726,173.631 94.524,173.861 94.524 C 174.091 94.524,174.357 94.321,174.452 94.074 C 174.547 93.826,174.979 93.623,175.413 93.623 C 175.948 93.623,176.251 93.431,176.357 93.023 C 176.475 92.572,176.766 92.423,177.529 92.423 C 178.232 92.423,178.545 92.284,178.545 91.973 C 178.545 91.660,178.859 91.523,179.573 91.523 C 180.139 91.523,180.783 91.342,181.003 91.122 C 181.224 90.901,182.005 90.640,182.740 90.541 C 183.474 90.443,184.230 90.151,184.419 89.892 C 184.661 89.561,185.266 89.422,186.464 89.422 C 187.700 89.422,188.213 89.299,188.339 88.972 C 188.479 88.606,189.194 88.522,192.155 88.520 C 194.801 88.519,196.034 88.396,196.658 88.070 C 197.749 87.501,201.842 87.445,202.025 87.997 C 202.115 88.266,203.329 88.402,206.326 88.476 C 209.511 88.556,210.560 88.681,210.743 89.002 C 210.909 89.293,211.567 89.422,212.886 89.422 C 214.254 89.422,214.836 89.542,214.953 89.849 C 215.052 90.107,215.782 90.358,216.809 90.486 C 217.806 90.611,218.567 90.867,218.661 91.110 C 218.748 91.337,219.195 91.523,219.655 91.523 C 220.121 91.523,220.567 91.722,220.664 91.973 C 220.781 92.279,221.260 92.423,222.161 92.423 C 223.234 92.423,223.516 92.537,223.643 93.023 C 223.757 93.460,224.052 93.623,224.728 93.623 C 225.353 93.623,225.656 93.770,225.656 94.074 C 225.656 94.321,225.859 94.524,226.107 94.524 C 226.354 94.524,226.557 94.726,226.557 94.974 C 226.557 95.288,226.873 95.424,227.607 95.424 C 228.348 95.424,228.657 95.559,228.657 95.881 C 228.657 96.150,229.029 96.414,229.557 96.519 C 230.053 96.618,230.458 96.885,230.458 97.112 C 230.458 97.339,230.728 97.524,231.058 97.524 C 231.391 97.524,231.658 97.724,231.658 97.974 C 231.658 98.222,231.860 98.425,232.108 98.425 C 232.356 98.425,232.558 98.574,232.558 98.757 C 232.558 99.218,233.826 100.514,234.284 100.520 C 234.490 100.523,234.659 100.728,234.659 100.975 C 234.659 101.223,234.861 101.425,235.109 101.425 C 235.356 101.425,235.559 101.628,235.559 101.875 C 235.559 102.123,235.761 102.326,236.009 102.326 C 236.257 102.326,236.459 102.541,236.459 102.804 C 236.459 103.067,236.729 103.353,237.059 103.439 C 237.389 103.525,237.659 103.783,237.659 104.011 C 237.659 104.239,237.862 104.426,238.110 104.426 C 238.357 104.426,238.560 104.629,238.560 104.876 C 238.560 105.124,238.762 105.326,239.010 105.326 C 239.260 105.326,239.460 105.593,239.460 105.926 C 239.460 106.264,239.660 106.527,239.917 106.527 C 240.189 106.527,240.451 106.904,240.560 107.453 C 240.662 107.962,240.929 108.449,241.153 108.535 C 241.377 108.621,241.560 108.879,241.560 109.109 C 241.560 109.339,241.763 109.527,242.011 109.527 C 242.309 109.527,242.461 109.826,242.461 110.417 C 242.461 111.000,242.668 111.418,243.061 111.628 C 243.391 111.805,243.661 112.200,243.661 112.507 C 243.661 112.813,243.863 113.142,244.111 113.237 C 244.376 113.338,244.561 113.788,244.561 114.329 C 244.561 114.869,244.747 115.319,245.011 115.420 C 245.259 115.515,245.461 115.767,245.461 115.979 C 245.461 116.191,245.647 116.436,245.874 116.523 C 246.101 116.610,246.379 117.300,246.492 118.056 C 246.627 118.956,246.847 119.430,247.130 119.430 C 247.448 119.430,247.562 119.825,247.562 120.930 C 247.562 122.064,247.672 122.431,248.012 122.431 C 248.349 122.431,248.462 122.790,248.462 123.864 C 248.462 124.653,248.652 125.569,248.884 125.900 C 249.116 126.232,249.402 127.140,249.518 127.918 C 249.654 128.822,249.881 129.332,250.147 129.332 C 250.497 129.332,250.563 132.362,250.563 148.516 C 250.563 163.898,250.640 167.778,250.955 168.096 C 251.170 168.314,251.436 168.728,251.545 169.017 C 252.130 170.562,265.566 169.455,265.566 167.862 C 265.566 167.595,265.895 167.442,266.467 167.442 C 267.067 167.442,267.367 167.292,267.367 166.992 C 267.367 166.744,267.555 166.542,267.785 166.542 C 268.244 166.542,268.567 165.911,268.567 165.017 C 268.567 164.700,268.770 164.441,269.017 164.441 C 269.332 164.441,269.467 164.124,269.467 163.391 C 269.467 162.657,269.603 162.341,269.917 162.341 C 270.297 162.341,270.368 161.657,270.368 157.989 C 270.368 154.322,270.297 153.638,269.917 153.638 C 269.588 153.638,269.467 153.296,269.467 152.361 C 269.467 151.285,269.302 150.932,268.417 150.120 C 267.839 149.590,267.367 149.017,267.367 148.846 C 267.367 148.676,267.179 148.537,266.949 148.537 C 266.719 148.537,266.453 148.335,266.358 148.087 C 266.257 147.824,265.807 147.637,265.276 147.637 C 264.775 147.637,264.366 147.495,264.366 147.321 C 264.366 147.148,263.961 146.864,263.466 146.692 L 262.566 146.378 262.562 141.681 C 262.557 136.633,262.428 135.634,261.780 135.634 C 261.448 135.634,261.365 134.835,261.365 131.604 C 261.365 128.423,261.271 127.480,260.915 127.125 C 260.613 126.823,260.465 126.071,260.465 124.843 C 260.465 123.492,260.347 122.967,260.015 122.839 C 259.710 122.722,259.565 122.244,259.565 121.359 C 259.565 120.358,259.424 119.976,258.965 119.730 C 258.501 119.482,258.365 119.102,258.365 118.060 C 258.365 117.137,258.222 116.656,257.914 116.538 C 257.620 116.425,257.464 115.957,257.464 115.187 C 257.464 114.417,257.309 113.950,257.014 113.837 C 256.767 113.742,256.564 113.409,256.564 113.096 C 256.564 112.728,256.353 112.528,255.964 112.528 C 255.430 112.528,255.364 112.328,255.364 110.718 C 255.364 109.386,255.245 108.863,254.914 108.736 C 254.666 108.641,254.464 108.389,254.464 108.177 C 254.464 107.965,254.261 107.713,254.014 107.618 C 253.766 107.523,253.563 107.091,253.563 106.658 C 253.563 106.123,253.371 105.820,252.963 105.713 C 252.631 105.626,252.363 105.304,252.363 104.991 C 252.363 104.680,252.161 104.426,251.913 104.426 C 251.613 104.426,251.463 104.126,251.463 103.526 C 251.463 102.959,251.309 102.626,251.048 102.626 C 250.819 102.626,250.562 102.356,250.476 102.026 C 250.389 101.695,250.104 101.425,249.841 101.425 C 249.578 101.425,249.362 101.237,249.362 101.007 C 249.362 100.777,249.160 100.512,248.912 100.417 C 248.665 100.322,248.462 99.898,248.462 99.475 C 248.462 99.052,248.260 98.628,248.012 98.533 C 247.764 98.438,247.562 98.172,247.562 97.942 C 247.562 97.712,247.292 97.524,246.962 97.524 C 246.628 97.524,246.362 97.324,246.362 97.074 C 246.362 96.827,246.159 96.624,245.911 96.624 C 245.661 96.624,245.461 96.357,245.461 96.024 C 245.461 95.694,245.275 95.424,245.046 95.424 C 244.818 95.424,244.558 95.146,244.470 94.807 C 244.381 94.467,243.893 94.032,243.384 93.841 C 242.829 93.631,242.461 93.279,242.461 92.957 C 242.461 92.664,242.258 92.423,242.011 92.423 C 241.763 92.423,241.560 92.221,241.560 91.973 C 241.560 91.723,241.294 91.523,240.960 91.523 C 240.627 91.523,240.360 91.323,240.360 91.073 C 240.360 90.825,240.158 90.623,239.910 90.623 C 239.662 90.623,239.460 90.469,239.460 90.282 C 239.460 89.688,237.958 88.522,237.194 88.522 C 236.741 88.522,236.459 88.350,236.459 88.072 C 236.459 87.824,236.257 87.622,236.009 87.622 C 235.761 87.622,235.559 87.415,235.559 87.162 C 235.559 86.910,235.323 86.613,235.034 86.504 C 234.745 86.395,234.330 86.129,234.112 85.913 C 233.894 85.698,233.470 85.521,233.169 85.521 C 232.868 85.521,232.545 85.319,232.450 85.071 C 232.351 84.814,231.903 84.621,231.402 84.621 C 230.780 84.621,230.482 84.448,230.371 84.021 C 230.256 83.584,229.961 83.421,229.285 83.421 C 228.660 83.421,228.357 83.274,228.357 82.971 C 228.357 82.671,228.057 82.521,227.457 82.521 C 226.857 82.521,226.557 82.371,226.557 82.071 C 226.557 81.759,226.244 81.620,225.541 81.620 C 224.778 81.620,224.487 81.471,224.369 81.020 C 224.244 80.541,223.960 80.420,222.962 80.420 C 222.252 80.420,221.518 80.226,221.262 79.970 C 221.012 79.720,220.279 79.520,219.612 79.520 C 218.945 79.520,218.212 79.320,217.962 79.070 C 217.714 78.822,217.049 78.620,216.483 78.620 C 215.803 78.620,215.454 78.478,215.454 78.202 C 215.454 77.590,214.767 77.419,212.304 77.419 C 210.809 77.419,210.062 77.299,209.978 77.044 C 209.769 76.418,190.478 76.332,189.856 76.954 M205.884 78.634 C 208.094 78.807,210.536 79.144,211.309 79.384 C 212.083 79.624,213.640 79.820,214.768 79.820 C 216.359 79.820,216.923 79.939,217.275 80.350 C 217.524 80.641,218.533 81.133,219.517 81.443 C 225.713 83.394,233.513 87.471,237.309 90.744 C 238.189 91.502,239.018 92.123,239.151 92.123 C 239.695 92.123,245.152 98.082,247.669 101.425 C 249.815 104.276,249.710 104.124,250.375 105.344 C 253.877 111.779,254.164 112.337,254.164 112.732 C 254.164 113.254,255.373 115.229,255.694 115.229 C 255.842 115.229,255.964 115.739,255.964 116.362 C 255.964 116.986,256.147 117.762,256.372 118.088 C 256.596 118.413,256.878 119.220,256.999 119.880 C 257.119 120.540,257.324 121.215,257.453 121.380 C 257.583 121.545,257.786 122.354,257.906 123.177 C 258.025 124.000,258.293 125.013,258.502 125.427 C 258.710 125.842,258.962 127.092,259.061 128.205 C 259.161 129.319,259.365 130.466,259.515 130.756 C 259.855 131.415,260.150 137.053,260.159 143.070 C 260.164 147.164,260.221 147.676,260.690 147.841 C 260.979 147.942,261.782 148.276,262.474 148.581 C 263.167 148.887,263.909 149.137,264.125 149.138 C 267.490 149.141,270.143 160.474,267.551 163.780 C 265.861 165.937,264.450 167.139,263.608 167.140 C 263.108 167.141,262.405 167.348,262.044 167.600 C 261.518 167.969,260.578 168.043,257.251 167.976 L 253.113 167.892 252.963 151.088 C 252.852 138.574,252.717 134.068,252.438 133.439 C 252.232 132.974,252.063 131.683,252.063 130.570 C 252.063 129.256,251.909 128.343,251.622 127.964 C 251.380 127.644,251.178 126.871,251.172 126.247 C 251.167 125.623,250.960 124.627,250.713 124.035 C 250.465 123.442,250.258 122.738,250.252 122.469 C 250.247 122.200,249.981 121.440,249.662 120.780 C 249.344 120.120,249.078 119.380,249.072 119.135 C 249.067 118.890,248.671 117.877,248.192 116.884 C 247.714 115.891,246.966 114.336,246.531 113.428 C 246.096 112.521,245.476 111.373,245.154 110.878 C 244.832 110.383,244.339 109.539,244.059 109.002 C 243.779 108.466,243.440 108.027,243.305 108.027 C 243.171 108.027,243.061 107.904,243.061 107.754 C 243.061 107.198,241.475 105.082,240.779 104.710 C 240.384 104.498,240.060 104.174,240.060 103.989 C 240.060 103.137,233.124 96.627,231.765 96.204 C 231.412 96.094,231.053 95.739,230.969 95.415 C 230.884 95.092,230.228 94.558,229.511 94.229 C 228.176 93.617,227.124 93.010,226.857 92.698 C 226.577 92.372,222.677 90.323,222.335 90.323 C 222.149 90.323,221.571 90.126,221.051 89.886 C 219.657 89.242,217.607 88.536,215.885 88.106 C 215.050 87.897,214.205 87.627,214.008 87.506 C 213.811 87.384,212.492 87.165,211.076 87.019 C 209.660 86.873,208.310 86.594,208.075 86.399 C 207.493 85.916,192.520 85.905,191.939 86.387 C 191.718 86.571,190.673 86.801,189.617 86.897 C 187.840 87.060,184.745 87.790,182.596 88.555 C 182.101 88.731,181.240 88.988,180.683 89.125 C 180.127 89.263,179.526 89.521,179.348 89.699 C 179.170 89.877,178.813 90.023,178.554 90.023 C 178.046 90.023,173.452 92.254,173.166 92.639 C 172.906 92.990,171.945 93.561,170.489 94.229 C 169.772 94.558,169.118 95.085,169.035 95.400 C 168.953 95.715,168.566 96.053,168.174 96.152 C 166.987 96.450,160.451 102.689,160.071 103.887 C 159.976 104.184,159.779 104.426,159.633 104.426 C 159.358 104.426,156.039 108.398,156.039 108.727 C 156.039 108.827,155.417 109.960,154.656 111.244 C 153.100 113.871,151.286 117.625,150.919 118.980 C 150.785 119.475,150.261 121.068,149.756 122.520 C 149.251 123.972,148.837 125.474,148.837 125.858 C 148.837 126.242,148.635 127.130,148.387 127.832 C 148.140 128.534,147.937 129.757,147.937 130.551 C 147.937 131.345,147.768 132.374,147.562 132.839 C 147.282 133.469,147.149 138.033,147.037 150.788 L 146.887 167.892 142.749 167.976 C 139.422 168.043,138.482 167.969,137.956 167.600 C 137.595 167.348,136.939 167.142,136.496 167.142 C 132.529 167.142,129.483 155.867,132.517 152.414 C 132.746 152.154,132.933 151.820,132.933 151.672 C 132.933 151.248,135.434 149.138,135.934 149.140 C 136.182 149.141,137.161 148.774,138.110 148.324 L 139.835 147.507 139.860 142.546 C 139.902 134.257,140.426 129.038,141.637 124.831 C 141.946 123.758,142.426 122.071,142.704 121.080 C 142.982 120.090,143.395 118.836,143.622 118.294 C 143.850 117.752,144.036 116.901,144.036 116.401 C 144.036 115.849,144.381 115.061,144.917 114.386 C 145.402 113.777,145.893 112.873,146.009 112.378 C 146.125 111.883,146.319 111.343,146.440 111.178 C 146.562 111.013,147.236 109.797,147.938 108.477 C 148.640 107.157,149.602 105.496,150.076 104.786 C 150.550 104.076,150.938 103.423,150.938 103.333 C 150.938 103.244,151.174 102.861,151.463 102.483 C 151.752 102.104,152.191 101.496,152.438 101.131 C 152.686 100.766,153.526 99.771,154.306 98.921 C 155.085 98.070,155.726 97.287,155.731 97.180 C 155.742 96.907,160.613 92.123,160.879 92.123 C 160.999 92.123,161.276 91.954,161.494 91.747 C 165.390 88.048,173.462 83.670,180.494 81.443 C 181.484 81.129,182.519 80.646,182.796 80.370 C 183.152 80.014,183.986 79.828,185.648 79.735 C 186.940 79.662,188.605 79.448,189.347 79.259 C 192.592 78.436,199.848 78.162,205.884 78.634 M189.647 141.693 C 189.647 175.526,189.590 180.682,189.221 180.177 C 188.627 179.366,185.567 179.363,184.975 180.173 C 184.607 180.676,184.539 180.681,184.090 180.232 C 183.474 179.616,181.885 179.592,181.654 180.195 C 181.520 180.543,180.940 180.645,179.103 180.645 C 177.266 180.645,176.686 180.748,176.553 181.095 C 176.454 181.352,176.007 181.545,175.512 181.545 C 174.940 181.545,174.644 181.699,174.644 181.995 C 174.644 182.299,174.340 182.446,173.715 182.446 C 173.039 182.446,172.744 182.609,172.630 183.046 C 172.512 183.497,172.221 183.646,171.458 183.646 C 170.755 183.646,170.443 183.785,170.443 184.096 C 170.443 184.396,170.143 184.546,169.542 184.546 C 168.942 184.546,168.642 184.696,168.642 184.996 C 168.642 185.244,168.427 185.446,168.164 185.446 C 167.901 185.446,167.615 185.716,167.529 186.047 C 167.442 186.377,167.185 186.647,166.957 186.647 C 166.728 186.647,166.542 186.849,166.542 187.097 C 166.542 187.344,166.339 187.547,166.092 187.547 C 165.844 187.547,165.641 187.749,165.641 187.997 C 165.641 188.245,165.540 188.457,165.416 188.470 C 164.487 188.565,163.960 188.779,163.666 189.181 C 163.478 189.437,163.171 189.647,162.983 189.647 C 162.795 189.647,162.641 190.025,162.641 190.486 C 162.641 191.172,162.464 191.376,161.665 191.611 C 160.906 191.834,160.669 192.084,160.594 192.741 C 160.540 193.205,160.304 193.658,160.068 193.748 C 159.833 193.839,159.640 194.303,159.640 194.781 C 159.640 195.449,159.502 195.649,159.040 195.649 C 158.578 195.649,158.440 195.849,158.440 196.517 C 158.440 197.012,158.246 197.459,157.989 197.558 C 157.672 197.680,157.539 198.175,157.539 199.240 C 157.539 200.382,157.430 200.750,157.089 200.750 C 156.712 200.750,156.639 201.384,156.639 204.651 C 156.639 207.919,156.712 208.552,157.089 208.552 C 157.439 208.552,157.539 208.951,157.539 210.338 C 157.539 211.500,157.678 212.207,157.937 212.363 C 158.156 212.495,158.422 212.839,158.528 213.128 C 158.634 213.417,158.928 213.653,159.180 213.653 C 159.491 213.653,159.640 213.945,159.640 214.554 C 159.640 215.154,159.790 215.454,160.090 215.454 C 160.338 215.454,160.540 215.604,160.540 215.787 C 160.540 216.248,161.808 217.543,162.266 217.549 C 162.472 217.552,162.641 217.757,162.641 218.005 C 162.641 218.252,162.843 218.455,163.091 218.455 C 163.338 218.455,163.541 218.651,163.541 218.891 C 163.541 219.152,163.962 219.407,164.591 219.525 C 165.193 219.638,165.641 219.900,165.641 220.138 C 165.641 220.401,165.974 220.555,166.542 220.555 C 167.142 220.555,167.442 220.705,167.442 221.005 C 167.442 221.320,167.759 221.455,168.492 221.455 C 169.186 221.455,169.542 221.596,169.542 221.870 C 169.542 222.321,170.431 222.645,171.686 222.652 C 172.122 222.654,172.557 222.858,172.652 223.106 C 172.797 223.486,173.787 223.556,178.995 223.556 C 184.203 223.556,185.192 223.486,185.338 223.106 C 185.453 222.807,185.928 222.654,186.754 222.652 C 188.433 222.646,189.347 222.371,189.347 221.870 C 189.347 221.574,189.766 221.455,190.816 221.455 C 191.844 221.455,192.336 221.320,192.457 221.005 C 192.558 220.742,193.007 220.555,193.539 220.555 C 194.147 220.555,194.449 220.406,194.449 220.105 C 194.449 219.857,194.708 219.655,195.024 219.655 C 195.919 219.655,196.549 219.331,196.549 218.873 C 196.549 218.643,196.752 218.455,196.999 218.455 C 197.247 218.455,197.449 218.252,197.449 218.005 C 197.449 217.757,197.618 217.552,197.824 217.549 C 198.272 217.543,199.550 216.252,199.550 215.807 C 199.550 215.635,199.921 215.451,200.375 215.399 C 201.014 215.325,201.221 215.125,201.292 214.509 C 201.349 214.024,201.611 213.655,201.967 213.562 C 202.288 213.478,202.551 213.194,202.551 212.931 C 202.551 212.668,202.753 212.453,203.001 212.453 C 203.301 212.453,203.451 212.153,203.451 211.553 C 203.451 210.953,203.601 210.653,203.901 210.653 C 204.151 210.653,204.351 210.386,204.351 210.053 C 204.351 209.652,204.551 209.452,204.951 209.452 C 205.433 209.452,205.551 209.252,205.551 208.434 C 205.551 207.806,205.724 207.350,206.002 207.243 C 206.249 207.148,206.452 206.743,206.452 206.343 C 206.452 205.943,206.654 205.538,206.902 205.443 C 207.530 205.202,207.566 200.150,206.939 200.150 C 206.515 200.150,206.152 201.395,206.152 202.851 C 206.152 203.306,205.949 203.846,205.701 204.051 C 205.452 204.258,205.251 204.912,205.251 205.516 C 205.251 206.282,205.073 206.719,204.651 206.982 C 204.321 207.188,204.051 207.635,204.051 207.976 C 204.051 208.316,203.848 208.798,203.601 209.045 C 203.353 209.293,203.151 209.831,203.151 210.242 C 203.151 210.652,203.041 210.921,202.908 210.838 C 202.774 210.755,202.335 211.105,201.933 211.614 C 201.530 212.123,200.964 212.790,200.675 213.096 C 200.386 213.403,200.150 213.788,200.150 213.953 C 200.150 214.119,199.947 214.254,199.700 214.254 C 199.452 214.254,199.250 214.456,199.250 214.704 C 199.250 214.951,199.121 215.154,198.964 215.154 C 198.807 215.154,198.220 215.626,197.659 216.204 C 197.098 216.782,196.478 217.254,196.282 217.254 C 195.932 217.254,194.413 218.236,193.610 218.980 C 193.388 219.186,192.894 219.355,192.513 219.355 C 192.133 219.355,191.653 219.557,191.448 219.805 C 191.242 220.053,190.692 220.255,190.226 220.255 C 189.745 220.255,189.256 220.472,189.096 220.757 C 188.877 221.149,188.330 221.267,186.590 221.298 C 185.036 221.326,184.146 221.491,183.639 221.847 C 182.628 222.555,175.114 222.606,174.723 221.908 C 174.563 221.622,173.772 221.386,172.536 221.257 C 171.471 221.146,170.419 220.875,170.199 220.655 C 169.980 220.435,169.467 220.255,169.061 220.255 C 168.655 220.255,168.246 220.053,168.151 219.805 C 168.056 219.557,167.676 219.355,167.306 219.355 C 166.937 219.355,166.390 219.085,166.092 218.755 C 165.793 218.425,165.367 218.155,165.145 218.155 C 164.923 218.155,164.741 217.952,164.741 217.704 C 164.741 217.457,164.539 217.254,164.291 217.254 C 163.862 217.254,162.641 216.241,162.641 215.885 C 162.641 215.791,162.236 215.374,161.740 214.958 C 161.245 214.541,160.840 214.005,160.840 213.767 C 160.840 213.529,160.650 213.261,160.417 213.172 C 160.185 213.083,159.904 212.650,159.793 212.209 C 159.683 211.769,159.446 211.319,159.268 211.208 C 159.090 211.098,158.881 210.256,158.805 209.336 C 158.729 208.417,158.480 207.510,158.253 207.321 C 157.717 206.876,157.712 204.337,158.245 203.061 C 158.468 202.527,158.744 201.418,158.859 200.595 C 159.045 199.257,159.538 197.857,160.285 196.549 C 160.426 196.302,160.673 195.795,160.833 195.424 C 160.994 195.053,161.264 194.749,161.433 194.749 C 161.602 194.749,161.740 194.545,161.740 194.296 C 161.740 194.046,162.011 193.611,162.341 193.329 C 162.671 193.046,162.941 192.690,162.941 192.538 C 162.941 192.293,164.049 191.180,167.499 187.965 C 168.049 187.452,168.802 186.937,169.171 186.819 C 169.540 186.702,169.842 186.480,169.842 186.326 C 169.842 186.172,170.049 186.047,170.302 186.047 C 170.555 186.047,170.836 185.852,170.927 185.615 C 171.018 185.377,171.513 185.091,172.026 184.978 C 172.539 184.865,173.145 184.587,173.373 184.360 C 173.600 184.132,174.030 183.946,174.328 183.946 C 174.626 183.946,175.038 183.743,175.244 183.496 C 175.450 183.248,176.106 183.045,176.706 183.044 C 177.305 183.043,178.200 182.817,178.695 182.542 C 179.432 182.132,180.673 182.026,185.563 181.952 C 188.846 181.902,191.572 181.821,191.622 181.771 C 191.687 181.706,192.106 109.422,192.056 106.902 C 192.043 106.253,192.898 106.495,193.119 107.202 C 193.358 107.967,196.947 112.742,197.799 113.428 C 198.106 113.676,199.132 114.587,200.079 115.454 C 201.026 116.320,201.877 117.029,201.971 117.029 C 202.065 117.029,202.672 117.502,203.321 118.079 C 203.970 118.657,204.608 119.129,204.739 119.130 C 204.870 119.130,205.140 119.263,205.339 119.425 C 206.965 120.752,207.619 121.230,207.802 121.230 C 207.919 121.230,208.615 121.635,209.349 122.131 C 210.083 122.626,210.871 123.031,211.100 123.031 C 211.330 123.031,211.604 123.171,211.711 123.343 C 211.817 123.515,212.736 124.061,213.754 124.556 C 214.771 125.051,215.806 125.579,216.054 125.729 C 216.302 125.879,217.678 126.559,219.112 127.240 C 220.546 127.921,221.879 128.670,222.074 128.905 C 222.269 129.140,222.562 129.332,222.724 129.332 C 222.886 129.332,223.619 129.737,224.353 130.233 C 225.086 130.728,225.746 131.133,225.818 131.133 C 225.890 131.133,226.187 131.327,226.478 131.565 C 226.769 131.803,228.105 132.820,229.448 133.824 C 232.120 135.821,236.092 139.820,237.509 141.940 C 238.005 142.680,238.511 143.331,238.635 143.386 C 238.758 143.441,238.860 143.745,238.860 144.061 C 238.860 144.377,239.130 144.906,239.460 145.236 C 239.790 145.566,240.060 146.144,240.060 146.520 C 240.060 146.896,240.241 147.470,240.462 147.795 C 241.643 149.532,241.643 158.646,240.463 160.382 C 240.241 160.707,240.060 161.334,240.060 161.775 C 240.060 162.216,239.890 162.642,239.682 162.722 C 239.473 162.802,238.974 163.525,238.573 164.329 C 238.171 165.133,237.738 165.926,237.610 166.092 C 234.198 170.501,234.254 170.497,234.053 166.320 C 233.967 164.544,233.749 162.821,233.567 162.491 C 233.386 162.161,233.149 161.399,233.040 160.798 C 232.932 160.198,232.511 159.118,232.106 158.398 C 231.700 157.678,231.239 156.799,231.082 156.445 C 230.655 155.482,228.157 151.900,227.065 150.682 C 225.108 148.502,220.421 144.036,220.089 144.036 C 219.989 144.036,219.142 143.381,218.206 142.580 C 217.270 141.780,216.302 141.038,216.054 140.932 C 215.806 140.825,214.861 140.192,213.953 139.524 C 213.046 138.857,211.999 138.184,211.628 138.030 C 211.257 137.876,210.953 137.622,210.953 137.466 C 210.953 137.310,210.557 137.095,210.073 136.989 C 209.590 136.883,209.033 136.602,208.836 136.365 C 208.283 135.698,207.126 135.828,206.886 136.583 C 206.605 137.469,207.068 198.790,207.359 199.261 C 207.487 199.468,207.808 199.554,208.072 199.453 C 208.506 199.286,208.552 197.246,208.552 178.254 C 208.552 166.123,208.665 157.239,208.820 157.239 C 209.317 157.239,209.430 156.360,208.990 155.919 C 208.353 155.282,208.334 138.635,208.970 138.635 C 209.200 138.635,209.466 138.837,209.561 139.085 C 209.662 139.348,210.111 139.535,210.643 139.535 C 211.252 139.535,211.553 139.684,211.553 139.985 C 211.553 140.233,211.755 140.435,212.003 140.435 C 212.251 140.435,212.453 140.623,212.453 140.853 C 212.453 141.312,213.084 141.635,213.978 141.635 C 214.295 141.635,214.554 141.838,214.554 142.086 C 214.554 142.333,214.742 142.536,214.972 142.536 C 215.202 142.536,215.467 142.738,215.562 142.986 C 215.663 143.249,216.113 143.436,216.645 143.436 C 217.354 143.436,217.554 143.568,217.554 144.036 C 217.554 144.366,217.742 144.636,217.972 144.636 C 218.202 144.636,218.468 144.839,218.563 145.086 C 218.658 145.334,218.943 145.536,219.195 145.536 C 219.448 145.536,219.655 145.739,219.655 145.986 C 219.655 146.234,219.799 146.437,219.975 146.437 C 220.151 146.437,220.741 146.909,221.286 147.487 C 221.831 148.065,222.564 148.537,222.916 148.537 C 223.285 148.537,223.556 148.728,223.556 148.987 C 223.556 149.235,223.758 149.437,224.006 149.437 C 224.307 149.437,224.456 149.738,224.456 150.347 C 224.456 150.921,224.642 151.328,224.958 151.449 C 225.602 151.696,226.398 152.493,226.645 153.136 C 226.751 153.412,226.977 153.638,227.147 153.638 C 227.318 153.638,227.457 153.841,227.457 154.089 C 227.457 154.336,227.663 154.539,227.914 154.539 C 228.186 154.539,228.448 154.916,228.557 155.465 C 228.659 155.974,228.926 156.461,229.150 156.547 C 229.374 156.633,229.557 157.094,229.557 157.571 C 229.557 158.143,229.711 158.440,230.008 158.440 C 230.340 158.440,230.458 158.789,230.458 159.779 C 230.458 160.812,230.595 161.193,231.058 161.440 C 231.574 161.717,231.658 162.069,231.658 163.969 C 231.658 165.655,231.764 166.218,232.108 166.350 C 232.741 166.593,232.728 168.642,232.094 168.642 C 231.715 168.642,231.646 168.986,231.719 170.518 L 231.808 172.393 233.083 172.485 C 234.077 172.557,234.359 172.475,234.359 172.110 C 234.359 171.850,234.613 171.643,234.934 171.643 C 235.829 171.643,236.459 171.319,236.459 170.861 C 236.459 170.631,236.662 170.443,236.909 170.443 C 237.207 170.443,237.359 170.145,237.359 169.563 C 237.359 168.946,237.539 168.626,237.959 168.492 C 238.290 168.387,238.560 168.108,238.560 167.872 C 238.560 167.635,238.762 167.442,239.010 167.442 C 239.306 167.442,239.460 167.145,239.460 166.574 C 239.460 166.079,239.653 165.631,239.910 165.533 C 240.158 165.438,240.360 165.107,240.360 164.797 C 240.360 164.487,240.630 163.990,240.960 163.691 C 241.290 163.392,241.560 162.778,241.560 162.326 C 241.560 161.873,241.762 161.427,242.011 161.332 C 242.343 161.204,242.461 160.679,242.461 159.328 C 242.461 158.100,242.609 157.348,242.911 157.046 C 243.243 156.714,243.361 155.903,243.361 153.954 C 243.361 151.971,243.248 151.218,242.911 150.938 C 242.592 150.673,242.461 149.973,242.461 148.537 C 242.461 147.101,242.329 146.401,242.011 146.137 C 241.763 145.931,241.560 145.508,241.560 145.197 C 241.560 144.885,241.290 144.399,240.960 144.116 C 240.630 143.834,240.360 143.362,240.360 143.069 C 240.360 142.776,240.158 142.536,239.910 142.536 C 239.632 142.536,239.460 142.254,239.460 141.801 C 239.460 141.037,238.294 139.535,237.700 139.535 C 237.513 139.535,237.359 139.332,237.359 139.085 C 237.359 138.837,237.157 138.635,236.909 138.635 C 236.659 138.635,236.459 138.368,236.459 138.035 C 236.459 137.701,236.259 137.434,236.009 137.434 C 235.761 137.434,235.559 137.232,235.559 136.984 C 235.559 136.734,235.292 136.534,234.959 136.534 C 234.625 136.534,234.359 136.334,234.359 136.084 C 234.359 135.836,234.156 135.634,233.908 135.634 C 233.658 135.634,233.458 135.367,233.458 135.034 C 233.458 134.700,233.258 134.434,233.008 134.434 C 232.761 134.434,232.558 134.231,232.558 133.983 C 232.558 133.733,232.291 133.533,231.958 133.533 C 231.625 133.533,231.358 133.333,231.358 133.083 C 231.358 132.836,231.155 132.633,230.908 132.633 C 230.660 132.633,230.458 132.431,230.458 132.183 C 230.458 131.935,230.260 131.733,230.018 131.733 C 229.776 131.733,229.434 131.463,229.257 131.133 C 229.069 130.782,228.629 130.533,228.196 130.533 C 227.739 130.533,227.457 130.361,227.457 130.083 C 227.457 129.835,227.254 129.632,227.007 129.632 C 226.759 129.632,226.557 129.444,226.557 129.214 C 226.557 128.752,225.925 128.432,225.010 128.432 C 224.682 128.432,224.211 128.230,223.963 127.982 C 223.716 127.734,223.253 127.532,222.934 127.532 C 222.616 127.532,222.356 127.329,222.356 127.082 C 222.356 126.834,222.153 126.632,221.905 126.632 C 221.658 126.632,221.455 126.444,221.455 126.214 C 221.455 125.755,220.825 125.431,219.930 125.431 C 219.614 125.431,219.355 125.229,219.355 124.981 C 219.355 124.681,219.055 124.531,218.455 124.531 C 217.854 124.531,217.554 124.381,217.554 124.081 C 217.554 123.767,217.238 123.631,216.504 123.631 C 215.806 123.631,215.454 123.491,215.454 123.213 C 215.454 122.754,214.823 122.431,213.929 122.431 C 213.612 122.431,213.353 122.228,213.353 121.980 C 213.353 121.680,213.053 121.530,212.453 121.530 C 211.853 121.530,211.553 121.380,211.553 121.080 C 211.553 120.830,211.286 120.630,210.953 120.630 C 210.623 120.630,210.353 120.438,210.353 120.204 C 210.353 119.969,209.959 119.691,209.477 119.585 C 208.996 119.480,208.528 119.199,208.437 118.961 C 208.343 118.717,207.876 118.530,207.361 118.530 C 206.753 118.530,206.452 118.381,206.452 118.080 C 206.452 117.832,206.249 117.629,206.002 117.629 C 205.754 117.629,205.551 117.436,205.551 117.200 C 205.551 116.963,205.254 116.675,204.890 116.560 C 204.527 116.444,204.044 116.165,203.819 115.939 C 203.593 115.714,203.215 115.529,202.979 115.529 C 202.744 115.529,202.551 115.326,202.551 115.079 C 202.551 114.829,202.284 114.629,201.950 114.629 C 201.550 114.629,201.350 114.429,201.350 114.029 C 201.350 113.695,201.150 113.428,200.900 113.428 C 200.653 113.428,200.450 113.226,200.450 112.978 C 200.450 112.731,200.262 112.528,200.032 112.528 C 199.802 112.528,199.536 112.326,199.441 112.078 C 199.346 111.830,199.062 111.628,198.809 111.628 C 198.556 111.628,198.350 111.425,198.350 111.178 C 198.350 110.930,198.147 110.728,197.899 110.728 C 197.649 110.728,197.449 110.461,197.449 110.128 C 197.449 109.794,197.249 109.527,196.999 109.527 C 196.752 109.527,196.549 109.325,196.549 109.077 C 196.549 108.830,196.357 108.627,196.123 108.627 C 195.888 108.627,195.606 108.213,195.494 107.707 C 195.383 107.200,195.102 106.713,194.870 106.624 C 194.638 106.535,194.449 106.135,194.449 105.734 C 194.449 105.321,194.060 104.626,193.548 104.126 C 193.053 103.642,192.648 103.106,192.648 102.936 C 192.648 102.764,191.981 102.626,191.148 102.626 L 189.647 102.626 189.647 141.693 M166.632 127.056 C 166.500 127.289,165.986 127.525,165.491 127.581 L 164.591 127.682 164.517 133.983 C 164.477 137.449,164.312 140.555,164.151 140.885 C 163.991 141.215,163.809 141.958,163.748 142.536 C 163.687 143.113,163.615 142.483,163.589 141.135 C 163.536 138.441,163.371 137.734,162.794 137.734 C 162.583 137.734,162.340 137.464,162.254 137.134 C 162.051 136.360,154.539 136.183,154.539 136.952 C 154.539 137.182,154.336 137.448,154.089 137.543 C 153.700 137.692,153.638 139.144,153.638 148.078 C 153.638 157.088,153.697 158.440,154.089 158.440 C 154.336 158.440,154.539 158.628,154.539 158.858 C 154.539 159.451,155.219 159.640,157.339 159.637 C 160.297 159.633,162.341 159.311,162.341 158.848 C 162.341 158.623,162.529 158.440,162.759 158.440 C 163.336 158.440,163.541 157.766,163.541 155.874 C 163.541 154.585,163.629 154.291,163.976 154.424 C 164.336 154.562,164.427 155.831,164.501 161.742 C 164.551 165.675,164.703 169.006,164.840 169.143 C 164.978 169.280,166.936 169.392,169.192 169.392 L 173.293 169.392 173.379 166.259 C 173.427 164.535,173.602 162.961,173.769 162.760 C 173.975 162.512,173.971 162.331,173.758 162.200 C 173.226 161.871,173.359 150.324,173.903 149.605 C 174.480 148.843,174.474 146.610,173.893 146.029 C 173.297 145.433,173.326 145.054,174.021 144.358 C 174.658 143.722,174.552 142.536,173.858 142.536 C 173.214 142.536,173.248 130.372,173.893 130.124 C 174.141 130.029,174.344 129.740,174.344 129.482 C 174.344 129.224,174.141 128.936,173.893 128.841 C 173.646 128.746,173.443 128.412,173.443 128.100 C 173.443 127.743,173.233 127.532,172.875 127.532 C 172.563 127.532,172.230 127.329,172.135 127.082 C 171.892 126.450,166.987 126.427,166.632 127.056 M170.222 128.479 C 170.591 128.669,171.095 128.920,171.343 129.036 C 171.804 129.253,172.351 165.256,171.922 167.142 C 171.763 167.844,171.616 167.898,169.639 167.979 C 166.411 168.113,166.430 168.167,166.536 159.356 C 166.583 155.469,166.646 147.292,166.676 141.185 C 166.707 135.079,166.825 129.804,166.939 129.465 C 167.283 128.438,169.092 127.895,170.222 128.479 M177.753 133.083 C 177.658 133.331,177.325 133.533,177.012 133.533 C 176.696 133.533,176.444 133.742,176.444 134.005 C 176.444 134.264,176.242 134.679,175.994 134.927 C 175.608 135.312,175.544 137.171,175.544 147.926 C 175.544 158.805,175.604 160.499,175.994 160.649 C 176.242 160.744,176.444 161.069,176.444 161.371 C 176.444 162.428,177.064 162.641,180.146 162.641 C 183.526 162.641,184.453 162.124,184.587 160.163 C 184.947 154.906,184.497 133.796,184.021 133.616 C 183.732 133.506,183.317 133.241,183.099 133.025 C 182.577 132.508,182.167 132.529,181.954 133.083 C 181.843 133.374,181.378 133.533,180.645 133.533 C 179.912 133.533,179.448 133.374,179.336 133.083 C 179.241 132.836,178.885 132.633,178.545 132.633 C 178.204 132.633,177.848 132.836,177.753 133.083 M182.898 136.009 C 182.989 136.380,183.025 142.018,182.979 148.537 L 182.896 160.390 181.511 160.658 C 179.947 160.960,178.809 160.762,178.113 160.066 C 177.693 159.645,177.658 158.313,177.806 148.138 C 178.011 133.942,177.719 135.334,180.495 135.334 C 182.568 135.334,182.746 135.384,182.898 136.009 M160.390 138.635 C 161.006 139.315,161.376 155.638,160.800 156.714 C 160.575 157.135,160.116 157.239,158.496 157.239 C 155.001 157.239,155.184 157.746,155.174 148.013 L 155.165 139.690 155.958 138.862 C 156.985 137.790,159.509 137.661,160.390 138.635 M225.656 176.129 C 225.656 176.451,225.420 176.847,225.131 177.008 C 224.263 177.494,224.203 215.543,225.069 216.285 C 225.392 216.561,225.656 216.960,225.656 217.171 C 225.656 217.382,225.845 217.554,226.074 217.554 C 226.304 217.554,226.570 217.757,226.665 218.005 C 226.798 218.349,227.366 218.455,229.098 218.455 C 230.907 218.455,231.358 218.365,231.358 218.005 C 231.358 217.664,231.725 217.554,232.858 217.554 L 234.359 217.554 234.359 204.473 C 234.359 192.142,234.391 191.352,234.921 190.678 L 235.483 189.963 235.668 191.081 C 235.769 191.695,235.854 193.642,235.856 195.406 C 235.858 197.217,235.990 198.695,236.159 198.800 C 236.693 199.130,236.549 207.652,236.009 207.652 C 235.709 207.652,235.559 207.952,235.559 208.552 C 235.559 209.119,235.713 209.452,235.974 209.452 C 236.202 209.452,236.460 209.722,236.546 210.053 C 236.813 211.073,245.461 210.928,245.461 209.902 C 245.461 209.690,245.664 209.439,245.911 209.344 C 246.492 209.121,246.494 208.056,245.915 207.732 C 245.532 207.518,245.457 205.689,245.390 195.039 L 245.311 182.596 242.011 182.519 C 240.159 182.476,238.400 182.282,238.004 182.077 C 236.841 181.474,236.459 182.363,236.459 185.675 C 236.459 187.777,236.345 188.604,236.009 188.940 C 235.609 189.340,235.559 189.321,235.559 188.771 C 235.559 188.431,235.289 187.983,234.959 187.777 C 234.231 187.323,234.125 185.600,234.809 185.338 C 235.056 185.243,235.259 184.840,235.259 184.442 C 235.259 184.045,235.056 183.551,234.809 183.346 C 234.453 183.051,234.359 182.194,234.359 179.258 L 234.359 175.544 230.008 175.544 C 225.893 175.544,225.656 175.576,225.656 176.129 M232.447 177.274 C 232.688 177.431,232.847 182.958,233.001 196.598 L 233.217 215.701 232.585 216.040 C 232.217 216.236,230.915 216.342,229.480 216.291 L 227.007 216.204 226.929 197.599 C 226.887 187.367,226.927 178.556,227.018 178.020 L 227.184 177.044 229.646 177.049 C 231.000 177.051,232.260 177.153,232.447 177.274 M244.005 185.296 C 244.299 187.042,244.303 208.331,244.009 208.789 C 243.828 209.071,242.992 209.152,240.935 209.089 L 238.110 209.002 238.031 196.884 C 237.940 182.760,237.659 183.891,241.227 184.010 L 243.802 184.096 244.005 185.296 M219.763 184.996 C 219.630 185.344,219.048 185.446,217.194 185.446 C 215.050 185.446,214.781 185.510,214.641 186.047 C 214.554 186.377,214.297 186.647,214.069 186.647 C 213.777 186.647,213.653 187.047,213.653 187.997 C 213.653 188.997,213.770 189.347,214.104 189.347 C 214.482 189.347,214.554 190.011,214.554 193.516 C 214.554 196.945,214.474 197.716,214.104 197.858 C 213.856 197.953,213.653 198.242,213.653 198.500 C 213.653 198.758,213.856 199.046,214.104 199.141 C 214.411 199.259,214.554 199.740,214.554 200.654 C 214.554 201.444,214.369 202.178,214.104 202.443 C 213.502 203.045,213.478 206.103,214.074 206.332 C 214.305 206.421,214.563 206.754,214.646 207.073 C 214.800 207.660,221.735 207.986,223.081 207.470 C 223.502 207.308,223.556 206.064,223.556 196.549 C 223.556 185.001,223.616 185.446,222.063 185.446 C 221.764 185.446,221.442 185.244,221.347 184.996 C 221.252 184.749,220.896 184.546,220.555 184.546 C 220.215 184.546,219.858 184.749,219.763 184.996 M221.569 187.622 C 222.272 188.733,222.277 204.809,221.575 205.586 C 220.672 206.583,216.132 206.415,215.870 205.374 C 215.616 204.361,215.897 187.743,216.176 187.292 C 216.616 186.581,221.083 186.854,221.569 187.622 " stroke="none" fill="#a22367" fill-rule="evenodd"></path><path id="path2" d="M245.230 111.084 C 245.295 111.280,245.509 111.494,245.705 111.559 C 245.925 111.632,245.992 111.495,245.880 111.203 C 245.670 110.657,245.050 110.544,245.230 111.084 M253.957 113.728 C 254.066 114.141,254.157 114.580,254.159 114.704 C 254.162 114.827,254.299 114.929,254.464 114.929 C 254.950 114.929,254.807 113.837,254.262 113.390 C 253.811 113.020,253.780 113.055,253.957 113.728 M145.436 113.628 C 145.125 113.940,145.201 114.929,145.536 114.929 C 145.701 114.929,145.836 114.805,145.836 114.653 C 145.836 114.502,145.918 114.164,146.019 113.903 C 146.200 113.430,145.816 113.249,145.436 113.628 M152.363 114.202 C 152.239 114.326,152.138 114.703,152.138 115.039 C 152.138 115.480,152.229 115.558,152.466 115.321 C 152.647 115.140,152.748 114.763,152.691 114.484 C 152.635 114.204,152.487 114.077,152.363 114.202 M247.262 114.911 C 247.262 115.231,247.397 115.577,247.562 115.679 C 247.732 115.784,247.862 115.532,247.862 115.096 C 247.862 114.674,247.727 114.329,247.562 114.329 C 247.397 114.329,247.262 114.591,247.262 114.911 M251.163 115.979 C 251.163 116.817,251.601 116.985,251.881 116.255 C 252.169 115.504,252.097 115.229,251.613 115.229 C 251.333 115.229,251.163 115.512,251.163 115.979 M201.813 117.308 C 201.615 117.630,202.388 118.292,202.653 118.027 C 202.762 117.918,202.851 117.731,202.851 117.611 C 202.851 117.275,201.990 117.023,201.813 117.308 M248.532 117.704 C 248.774 118.076,249.063 118.872,249.175 119.475 C 249.287 120.077,249.577 120.735,249.820 120.937 C 250.064 121.139,250.263 121.676,250.263 122.131 C 250.263 122.585,250.465 123.442,250.713 124.035 C 250.960 124.627,251.167 125.623,251.172 126.247 C 251.178 126.871,251.380 127.644,251.622 127.964 C 251.901 128.332,252.063 129.238,252.063 130.425 C 252.063 131.458,252.266 133.081,252.513 134.032 C 252.884 135.455,252.969 138.597,252.998 151.826 C 253.017 160.662,253.095 167.656,253.170 167.367 C 253.328 166.764,253.604 166.702,254.068 167.166 C 254.299 167.397,254.723 167.398,255.553 167.167 C 257.093 166.740,258.940 166.757,260.195 167.210 L 261.215 167.578 260.165 167.771 L 259.115 167.963 260.315 167.993 C 260.975 168.009,261.777 167.825,262.098 167.582 C 262.418 167.340,263.093 167.141,263.598 167.140 C 264.451 167.139,265.852 165.948,267.551 163.780 C 268.662 162.363,268.737 154.736,267.662 152.642 C 266.979 151.314,264.783 149.138,264.125 149.138 C 263.909 149.137,263.167 148.887,262.474 148.581 C 261.782 148.276,260.979 147.942,260.690 147.841 C 260.221 147.676,260.164 147.164,260.159 143.070 C 260.150 137.053,259.855 131.415,259.515 130.756 C 259.365 130.466,259.161 129.319,259.061 128.205 C 258.962 127.092,258.705 125.831,258.489 125.403 C 258.274 124.975,258.006 123.931,257.893 123.083 C 257.781 122.235,257.503 121.387,257.276 121.199 C 257.050 121.011,256.864 120.399,256.864 119.839 C 256.864 117.810,256.277 117.466,255.068 118.784 C 254.488 119.416,253.840 119.991,253.628 120.061 C 252.996 120.268,252.380 122.439,252.733 123.213 C 252.937 123.661,252.936 124.254,252.730 125.030 L 252.425 126.182 252.394 124.928 C 252.377 124.238,252.176 123.486,251.947 123.257 C 251.357 122.668,250.263 120.325,250.263 119.654 C 250.263 118.861,249.688 117.878,249.347 118.089 C 249.191 118.186,249.062 117.987,249.062 117.647 C 249.062 117.278,248.867 117.029,248.578 117.029 C 248.145 117.029,248.140 117.102,248.532 117.704 M143.528 118.422 C 143.359 118.894,142.991 120.090,142.710 121.080 C 142.429 122.071,141.946 123.758,141.637 124.831 C 140.426 129.038,139.902 134.257,139.860 142.546 L 139.835 147.507 138.110 148.324 C 137.161 148.774,136.182 149.141,135.934 149.140 C 135.434 149.138,132.933 151.248,132.933 151.672 C 132.933 151.820,132.746 152.154,132.517 152.414 C 131.522 153.546,131.097 158.921,131.783 161.683 C 132.566 164.834,134.096 166.370,136.363 166.278 C 137.253 166.242,138.069 166.354,138.176 166.527 C 138.301 166.730,137.803 166.855,136.777 166.879 L 135.184 166.917 136.433 167.121 C 137.120 167.233,137.886 167.494,138.135 167.701 C 138.410 167.929,139.158 168.032,140.037 167.963 L 141.485 167.850 139.910 167.796 C 138.491 167.747,137.587 167.168,138.860 167.123 C 139.149 167.113,140.364 167.007,141.560 166.887 C 142.757 166.767,143.736 166.764,143.736 166.881 C 143.736 167.275,145.495 167.485,146.097 167.163 C 146.578 166.906,146.720 166.945,146.830 167.368 C 146.905 167.656,146.983 160.527,147.002 151.526 C 147.031 138.030,147.116 134.857,147.487 133.432 C 147.734 132.481,147.937 131.120,147.937 130.406 C 147.937 129.692,148.140 128.534,148.387 127.832 C 148.635 127.130,148.837 126.240,148.837 125.854 C 148.837 125.468,149.061 124.506,149.334 123.716 C 149.608 122.927,149.853 122.078,149.880 121.830 C 149.906 121.583,150.155 120.948,150.433 120.420 C 151.002 119.338,151.086 118.357,150.636 118.078 C 150.253 117.842,149.933 118.659,149.907 119.939 C 149.896 120.519,149.732 120.929,149.512 120.929 C 149.306 120.930,149.137 121.065,149.137 121.230 C 149.137 121.395,148.885 121.783,148.576 122.091 C 148.268 122.400,147.876 123.177,147.707 123.817 L 147.399 124.981 147.368 123.256 C 147.351 122.307,147.206 121.530,147.046 121.530 C 146.886 121.530,146.842 121.306,146.947 121.031 C 147.078 120.691,147.025 120.602,146.781 120.753 C 146.550 120.896,146.262 120.586,145.965 119.875 C 145.658 119.140,145.364 118.832,145.075 118.943 C 144.811 119.044,144.487 118.808,144.240 118.336 L 143.835 117.565 143.528 118.422 M203.151 118.530 C 203.151 118.695,203.338 118.830,203.566 118.830 C 203.794 118.830,204.052 119.100,204.138 119.430 C 204.231 119.785,204.547 120.030,204.914 120.030 C 205.341 120.030,205.479 119.890,205.360 119.580 C 205.265 119.332,205.016 119.130,204.806 119.130 C 204.596 119.130,204.256 118.927,204.051 118.680 C 203.624 118.165,203.151 118.086,203.151 118.530 M192.711 119.814 C 192.089 120.477,192.085 120.631,191.880 151.238 C 191.688 180.015,191.795 189.203,192.170 176.022 C 192.321 170.695,192.401 170.031,192.898 169.967 C 193.008 169.952,193.352 169.830,193.663 169.694 C 194.009 169.543,194.458 169.591,194.820 169.817 C 195.290 170.111,195.364 170.110,195.181 169.814 C 195.013 169.542,195.107 169.501,195.525 169.664 C 196.550 170.062,196.698 170.005,196.794 169.168 C 196.976 167.586,198.950 167.678,198.950 169.269 C 198.950 169.785,199.139 170.234,199.400 170.334 C 199.647 170.429,199.850 170.746,199.850 171.038 C 199.850 173.435,201.327 170.816,202.097 167.054 C 202.324 165.942,202.851 166.312,202.851 167.585 C 202.851 168.139,203.010 168.645,203.204 168.710 C 203.557 168.827,203.908 170.713,204.246 174.301 C 204.429 176.253,204.937 176.352,204.947 174.438 C 204.949 173.912,205.105 173.102,205.293 172.638 C 205.482 172.173,205.746 169.565,205.881 166.842 C 206.016 164.119,206.262 160.068,206.428 157.839 C 206.595 155.611,206.735 149.985,206.741 145.336 C 206.747 140.687,206.834 136.670,206.934 136.409 C 207.161 135.816,208.358 135.789,208.836 136.365 C 209.033 136.602,209.590 136.883,210.073 136.989 C 210.557 137.095,210.953 137.310,210.953 137.466 C 210.953 137.622,211.257 137.876,211.628 138.030 C 211.999 138.184,213.046 138.857,213.953 139.524 C 214.861 140.192,215.806 140.825,216.054 140.932 C 216.302 141.038,217.270 141.780,218.206 142.580 C 219.142 143.381,219.989 144.036,220.089 144.036 C 220.421 144.036,225.108 148.502,227.065 150.682 C 228.157 151.900,230.655 155.482,231.082 156.445 C 231.239 156.799,231.703 157.684,232.113 158.412 C 232.523 159.139,232.858 159.930,232.858 160.169 C 232.858 160.433,233.036 160.536,233.308 160.432 C 233.643 160.303,233.753 160.468,233.737 161.075 C 233.719 161.800,233.688 161.824,233.458 161.290 L 233.200 160.690 233.202 161.290 C 233.203 162.153,234.305 164.464,234.346 163.691 C 234.376 163.114,234.394 163.112,234.795 163.642 C 235.057 163.988,235.156 164.602,235.060 165.292 C 234.811 167.085,234.577 167.397,234.347 166.242 C 234.194 165.475,234.139 165.800,234.143 167.442 C 234.146 168.680,234.205 169.313,234.275 168.849 C 234.347 168.370,234.554 168.060,234.755 168.130 C 234.950 168.199,235.063 168.503,235.007 168.807 C 234.863 169.588,235.542 168.989,236.647 167.360 C 237.120 166.662,237.586 166.024,237.682 165.941 C 237.985 165.681,238.830 163.824,238.573 163.982 C 238.439 164.066,238.263 163.795,238.184 163.380 C 238.009 162.464,238.426 162.096,238.653 162.966 L 238.815 163.585 239.438 162.963 C 239.780 162.621,240.060 162.033,240.060 161.657 C 240.060 161.281,240.241 160.707,240.463 160.382 C 241.643 158.646,241.643 149.532,240.462 147.795 C 240.241 147.470,240.060 146.896,240.060 146.520 C 240.060 146.144,239.790 145.566,239.460 145.236 C 239.130 144.906,238.860 144.377,238.860 144.061 C 238.860 143.745,238.758 143.441,238.635 143.386 C 238.511 143.331,238.005 142.680,237.509 141.940 C 236.092 139.820,232.120 135.821,229.448 133.824 C 228.105 132.820,226.769 131.803,226.478 131.565 C 226.187 131.327,225.861 131.133,225.752 131.133 C 225.643 131.133,225.340 130.948,225.080 130.722 C 224.358 130.095,221.787 128.732,221.327 128.732 C 221.103 128.732,220.851 128.555,220.768 128.339 C 220.685 128.122,219.692 127.507,218.561 126.971 C 217.430 126.435,216.302 125.875,216.054 125.727 C 215.806 125.578,214.861 125.097,213.953 124.659 C 213.046 124.220,212.071 123.657,211.788 123.408 C 211.504 123.159,210.998 123.027,210.663 123.115 C 210.263 123.220,210.053 123.129,210.053 122.853 C 210.053 122.621,209.840 122.431,209.581 122.431 C 208.902 122.431,210.139 123.955,211.200 124.426 C 211.984 124.774,211.973 124.783,210.745 124.807 C 210.054 124.820,209.411 124.707,209.317 124.554 C 209.222 124.402,208.748 124.190,208.262 124.083 C 207.776 123.977,207.302 123.645,207.207 123.347 C 207.104 123.022,206.499 122.654,205.701 122.430 C 204.707 122.152,204.214 121.799,203.769 121.043 C 203.123 119.949,202.541 119.768,201.950 120.480 C 201.675 120.812,201.664 121.036,201.909 121.330 C 202.613 122.178,201.190 121.728,200.021 120.734 C 199.372 120.182,198.741 119.730,198.619 119.730 C 198.289 119.730,196.549 121.528,196.549 121.869 C 196.549 122.337,194.417 123.119,194.074 122.777 C 193.912 122.614,193.779 121.793,193.779 120.952 C 193.779 119.149,193.557 118.912,192.711 119.814 M144.932 121.709 C 144.934 122.261,144.693 122.858,144.336 123.181 C 143.926 123.552,143.736 124.105,143.736 124.928 C 143.736 126.931,143.321 125.861,143.231 123.625 C 143.158 121.808,143.233 121.453,143.817 120.856 C 144.587 120.069,144.925 120.328,144.932 121.709 M255.902 120.642 C 256.112 120.978,256.414 121.173,256.574 121.074 C 256.748 120.967,256.864 121.565,256.864 122.563 C 256.864 124.513,256.903 124.488,255.669 123.335 C 254.799 122.523,254.729 122.326,254.913 121.235 C 255.142 119.879,255.348 119.756,255.902 120.642 M206.092 120.690 C 206.290 120.888,206.452 121.279,206.452 121.558 C 206.452 122.193,207.172 122.487,208.134 122.246 C 208.903 122.053,208.634 121.230,207.802 121.230 C 207.595 121.230,207.257 121.028,207.052 120.780 C 206.846 120.533,206.465 120.330,206.205 120.330 C 205.837 120.330,205.811 120.410,206.092 120.690 M199.324 123.786 C 199.513 124.771,198.706 125.024,197.919 124.225 C 197.320 123.617,197.318 123.583,197.854 123.184 C 198.572 122.650,199.153 122.888,199.324 123.786 M203.869 123.205 C 204.250 124.197,204.068 124.542,203.201 124.476 C 202.379 124.413,202.142 123.998,202.416 123.106 C 202.582 122.569,203.653 122.642,203.869 123.205 M147.009 128.224 C 146.573 129.181,146.137 129.001,146.137 127.864 C 146.137 126.809,146.437 126.503,146.960 127.026 C 147.287 127.354,147.297 127.591,147.009 128.224 M217.704 127.532 C 217.813 127.707,217.507 127.832,216.972 127.832 C 216.467 127.832,216.054 127.697,216.054 127.532 C 216.054 127.367,216.384 127.232,216.786 127.232 C 217.189 127.232,217.602 127.367,217.704 127.532 M166.946 129.441 C 166.828 129.794,166.707 135.079,166.676 141.185 C 166.646 147.292,166.583 155.475,166.536 159.370 C 166.454 166.205,166.627 168.091,167.197 166.552 C 167.436 165.904,167.489 165.891,167.996 166.350 C 168.295 166.621,168.706 166.842,168.911 166.842 C 170.361 166.842,170.510 167.602,169.092 167.770 C 167.606 167.946,167.610 167.948,169.600 167.995 C 170.704 168.021,171.692 167.905,171.796 167.737 C 172.113 167.223,171.955 129.558,171.634 129.171 C 171.061 128.482,167.193 128.705,166.946 129.441 M178.114 136.009 C 177.657 138.178,177.656 159.609,178.113 160.066 C 178.809 160.762,179.947 160.960,181.511 160.658 L 182.896 160.390 182.979 148.537 C 183.081 134.069,183.319 135.334,180.495 135.334 C 178.415 135.334,178.246 135.382,178.114 136.009 M155.958 138.863 L 155.164 139.692 155.174 147.925 C 155.187 157.657,155.039 157.239,158.475 157.239 C 160.115 157.239,160.575 157.136,160.800 156.714 C 161.376 155.638,161.006 139.315,160.390 138.635 C 159.508 137.660,156.985 137.790,155.958 138.863 M160.540 156.511 C 160.540 156.735,160.302 156.821,159.943 156.727 C 159.272 156.551,159.366 156.139,160.077 156.139 C 160.332 156.139,160.540 156.306,160.540 156.511 M135.909 160.915 C 136.256 161.832,135.765 162.432,135.002 162.024 C 134.445 161.725,134.238 160.836,134.634 160.440 C 135.043 160.031,135.661 160.261,135.909 160.915 M265.266 161.408 C 265.266 162.381,264.590 162.822,264.067 162.192 C 263.815 161.888,263.812 161.615,264.056 161.159 C 264.553 160.230,265.266 160.376,265.266 161.408 M144.936 163.991 C 144.936 165.076,144.417 165.167,143.902 164.172 C 143.479 163.354,143.484 163.274,143.964 163.165 C 144.716 162.994,144.936 163.182,144.936 163.991 M146.737 163.991 C 146.737 164.404,146.602 164.741,146.437 164.741 C 146.272 164.741,146.137 164.404,146.137 163.991 C 146.137 163.578,146.272 163.241,146.437 163.241 C 146.602 163.241,146.737 163.578,146.737 163.991 M253.863 164.351 C 253.863 164.908,253.767 165.065,253.554 164.851 C 253.383 164.681,253.330 164.316,253.436 164.041 C 253.714 163.317,253.863 163.425,253.863 164.351 M138.785 164.441 C 138.890 164.611,138.638 164.741,138.202 164.741 C 137.780 164.741,137.434 164.606,137.434 164.441 C 137.434 164.276,137.696 164.141,138.017 164.141 C 138.337 164.141,138.683 164.276,138.785 164.441 M262.566 164.441 C 262.566 164.606,262.220 164.741,261.798 164.741 C 261.362 164.741,261.110 164.611,261.215 164.441 C 261.317 164.276,261.663 164.141,261.983 164.141 C 262.304 164.141,262.566 164.276,262.566 164.441 M264.516 166.542 C 264.631 166.727,264.113 166.842,263.166 166.842 C 262.218 166.842,261.701 166.727,261.815 166.542 C 261.917 166.377,262.525 166.242,263.166 166.242 C 263.806 166.242,264.414 166.377,264.516 166.542 M171.643 167.142 C 171.643 167.477,171.443 167.742,171.190 167.742 C 170.813 167.742,170.800 167.642,171.112 167.142 C 171.319 166.812,171.522 166.542,171.565 166.542 C 171.608 166.542,171.643 166.812,171.643 167.142 M144.865 167.954 C 145.238 168.026,145.778 168.023,146.065 167.948 C 146.352 167.873,146.047 167.814,145.386 167.818 C 144.726 167.821,144.491 167.882,144.865 167.954 M226.932 179.295 C 226.936 179.955,226.997 180.190,227.069 179.816 C 227.141 179.443,227.138 178.903,227.063 178.616 C 226.988 178.329,226.929 178.635,226.932 179.295 M228.582 178.743 C 228.788 178.827,228.957 179.075,228.957 179.295 C 228.957 179.754,229.532 180.021,230.083 179.819 C 231.026 179.472,230.469 178.544,229.332 178.568 C 228.713 178.581,228.376 178.660,228.582 178.743 " stroke="none" fill="#f5327b" fill-rule="evenodd"></path><path id="path3" d="M193.698 78.659 C 192.048 78.801,190.090 79.071,189.347 79.259 C 188.605 79.448,186.940 79.662,185.648 79.735 C 183.986 79.828,183.152 80.014,182.796 80.370 C 182.519 80.646,181.484 81.129,180.494 81.443 C 173.462 83.670,165.390 88.048,161.494 91.747 C 161.276 91.954,160.999 92.123,160.879 92.123 C 160.613 92.123,155.742 96.907,155.731 97.180 C 155.726 97.287,155.085 98.070,154.306 98.921 C 153.526 99.771,152.686 100.766,152.438 101.131 C 152.191 101.496,151.752 102.104,151.463 102.483 C 151.174 102.861,150.938 103.244,150.938 103.333 C 150.938 103.423,150.539 104.087,150.051 104.810 C 148.948 106.444,147.597 109.107,147.706 109.433 C 147.750 109.568,147.652 109.731,147.487 109.796 C 146.852 110.048,146.091 111.774,145.984 113.201 C 145.871 114.720,145.567 115.394,145.314 114.685 C 145.206 114.382,145.044 114.409,144.605 114.807 C 143.586 115.729,143.999 119.355,145.076 118.942 C 145.364 118.832,145.658 119.141,145.965 119.875 C 146.262 120.586,146.550 120.896,146.781 120.753 C 147.025 120.602,147.078 120.691,146.947 121.031 C 146.842 121.306,146.886 121.530,147.046 121.530 C 147.206 121.530,147.351 122.307,147.368 123.256 L 147.399 124.981 147.707 123.817 C 147.876 123.177,148.268 122.400,148.576 122.091 C 148.885 121.783,149.137 121.395,149.137 121.230 C 149.137 121.065,149.327 120.930,149.559 120.930 C 149.809 120.930,149.930 120.716,149.855 120.405 C 149.633 119.488,150.194 118.071,150.740 118.168 C 151.114 118.234,151.238 118.028,151.238 117.342 C 151.238 116.777,151.379 116.458,151.609 116.504 C 151.832 116.549,152.041 116.125,152.134 115.444 C 152.219 114.820,152.408 114.324,152.554 114.343 C 152.884 114.385,155.960 109.195,156.221 108.156 C 156.326 107.740,156.478 107.466,156.560 107.548 C 156.642 107.630,157.308 106.961,158.041 106.061 C 158.773 105.162,159.491 104.426,159.636 104.426 C 159.781 104.426,159.976 104.184,160.071 103.887 C 160.451 102.689,166.987 96.450,168.174 96.152 C 168.566 96.053,168.953 95.715,169.035 95.400 C 169.118 95.085,169.772 94.558,170.489 94.229 C 171.945 93.561,172.906 92.990,173.166 92.639 C 173.452 92.254,178.046 90.023,178.554 90.023 C 178.813 90.023,179.170 89.877,179.348 89.699 C 179.526 89.521,180.127 89.263,180.683 89.125 C 181.240 88.988,182.101 88.731,182.596 88.555 C 184.745 87.790,187.840 87.060,189.617 86.897 C 190.673 86.801,191.718 86.571,191.939 86.387 C 192.520 85.905,207.493 85.916,208.075 86.399 C 208.310 86.594,209.660 86.873,211.076 87.019 C 212.492 87.165,213.811 87.384,214.008 87.506 C 214.205 87.627,215.050 87.897,215.885 88.106 C 217.607 88.536,219.657 89.242,221.051 89.886 C 221.571 90.126,222.149 90.323,222.335 90.323 C 222.677 90.323,226.577 92.372,226.857 92.698 C 227.124 93.010,228.176 93.617,229.511 94.229 C 230.228 94.558,230.884 95.092,230.969 95.415 C 231.053 95.739,231.412 96.094,231.765 96.204 C 233.124 96.627,240.060 103.137,240.060 103.989 C 240.060 104.174,240.384 104.498,240.779 104.710 C 241.475 105.082,243.061 107.198,243.061 107.754 C 243.061 107.904,243.179 108.027,243.324 108.027 C 243.469 108.027,243.758 108.437,243.965 108.937 C 244.173 109.438,244.673 110.108,245.077 110.425 C 245.763 110.965,245.976 111.428,246.043 112.528 C 246.065 112.890,246.121 112.899,246.324 112.579 C 246.496 112.308,246.640 112.571,246.771 113.394 C 246.917 114.305,247.078 114.565,247.414 114.436 C 247.750 114.307,247.862 114.490,247.862 115.172 C 247.862 116.381,248.135 117.029,248.644 117.029 C 248.874 117.029,249.062 117.307,249.062 117.647 C 249.062 117.987,249.191 118.186,249.347 118.089 C 249.688 117.878,250.263 118.861,250.263 119.654 C 250.263 120.325,251.357 122.668,251.947 123.257 C 252.176 123.486,252.377 124.238,252.394 124.928 L 252.425 126.182 252.730 125.030 C 252.936 124.254,252.937 123.661,252.733 123.213 C 252.380 122.439,252.996 120.268,253.628 120.061 C 254.634 119.730,255.964 117.801,255.964 116.671 C 255.964 115.507,254.944 113.968,254.673 114.722 C 254.426 115.414,254.086 114.634,254.017 113.215 C 253.952 111.881,252.963 109.627,252.602 109.989 C 252.514 110.077,252.357 109.723,252.253 109.203 C 252.149 108.683,251.591 107.479,251.013 106.527 C 250.435 105.576,249.962 104.708,249.962 104.599 C 249.962 104.490,249.828 104.238,249.663 104.038 C 249.498 103.839,248.601 102.663,247.669 101.425 C 245.152 98.082,239.695 92.123,239.151 92.123 C 239.018 92.123,238.189 91.502,237.309 90.744 C 233.513 87.471,225.713 83.394,219.517 81.443 C 218.533 81.133,217.524 80.641,217.275 80.350 C 216.923 79.939,216.359 79.820,214.768 79.820 C 213.640 79.820,212.083 79.624,211.309 79.384 C 208.402 78.483,199.854 78.131,193.698 78.659 M191.975 106.902 C 191.899 107.108,191.903 110.220,191.983 113.818 L 192.128 120.360 192.807 119.722 C 193.625 118.953,193.764 119.141,193.782 121.039 C 193.789 121.841,193.924 122.627,194.082 122.785 C 194.417 123.119,196.549 122.328,196.549 121.869 C 196.549 121.528,198.289 119.730,198.619 119.730 C 198.741 119.730,199.372 120.182,200.021 120.734 C 201.190 121.728,202.613 122.178,201.909 121.330 C 201.664 121.036,201.675 120.812,201.950 120.480 C 202.541 119.768,203.123 119.949,203.769 121.043 C 204.214 121.799,204.707 122.152,205.701 122.430 C 206.499 122.654,207.104 123.022,207.207 123.347 C 207.302 123.645,207.776 123.977,208.262 124.083 C 208.748 124.190,209.222 124.402,209.317 124.554 C 209.411 124.707,210.054 124.820,210.745 124.807 L 212.003 124.782 211.010 124.349 C 210.195 123.993,210.051 123.795,210.205 123.248 C 210.329 122.805,210.301 122.712,210.121 122.970 C 209.903 123.283,209.774 123.268,209.464 122.895 C 209.148 122.514,209.153 122.430,209.491 122.426 C 209.830 122.422,209.828 122.374,209.477 122.152 C 209.225 121.992,208.752 121.997,208.312 122.165 C 207.339 122.535,206.452 122.231,206.452 121.528 C 206.452 121.219,206.302 120.873,206.120 120.760 C 205.888 120.617,205.911 120.477,206.195 120.297 C 206.655 120.006,206.271 119.917,205.005 120.021 C 204.523 120.061,204.257 119.886,204.144 119.454 C 204.055 119.111,203.794 118.830,203.566 118.830 C 203.338 118.830,203.151 118.613,203.151 118.347 C 203.151 118.053,202.984 117.929,202.723 118.030 C 202.295 118.194,201.522 117.558,201.805 117.275 C 201.887 117.193,201.683 116.880,201.352 116.581 C 201.011 116.272,200.750 116.186,200.750 116.383 C 200.750 116.573,200.619 116.729,200.460 116.729 C 200.300 116.729,200.237 116.552,200.320 116.335 C 200.521 115.813,198.704 113.932,197.945 113.876 C 197.618 113.852,197.320 113.628,197.283 113.379 C 197.247 113.129,196.342 111.789,195.273 110.401 C 194.204 109.013,193.235 107.573,193.119 107.202 C 192.891 106.473,192.198 106.292,191.975 106.902 M252.063 115.504 C 252.063 116.024,251.699 116.729,251.431 116.729 C 251.283 116.729,251.163 116.392,251.163 115.979 C 251.163 115.512,251.333 115.229,251.613 115.229 C 251.860 115.229,252.063 115.353,252.063 115.504 M143.817 120.856 C 143.233 121.453,143.158 121.808,143.231 123.625 C 143.321 125.861,143.736 126.931,143.736 124.928 C 143.736 124.105,143.926 123.552,144.336 123.181 C 144.693 122.858,144.934 122.261,144.932 121.709 C 144.925 120.328,144.587 120.069,143.817 120.856 M254.913 121.235 C 254.728 122.328,254.799 122.523,255.678 123.344 C 256.848 124.437,256.751 124.541,256.940 121.980 C 257.053 120.459,257.017 120.087,256.808 120.630 L 256.521 121.380 255.969 120.705 C 255.228 119.798,255.149 119.837,254.913 121.235 M197.854 123.184 C 197.318 123.583,197.320 123.617,197.919 124.225 C 198.706 125.024,199.513 124.771,199.324 123.786 C 199.153 122.888,198.572 122.650,197.854 123.184 M202.416 123.106 C 202.142 123.998,202.379 124.413,203.201 124.476 C 204.068 124.542,204.250 124.197,203.869 123.205 C 203.653 122.642,202.582 122.569,202.416 123.106 M146.344 126.825 C 146.049 127.119,146.086 128.666,146.393 128.855 C 146.891 129.163,147.413 127.479,146.960 127.026 C 146.735 126.801,146.458 126.711,146.344 126.825 M216.054 127.532 C 216.054 127.697,216.467 127.832,216.972 127.832 C 217.507 127.832,217.813 127.707,217.704 127.532 C 217.602 127.367,217.189 127.232,216.786 127.232 C 216.384 127.232,216.054 127.367,216.054 127.532 M168.385 128.399 C 168.161 128.541,168.094 128.729,168.237 128.817 C 168.637 129.065,170.156 128.697,169.971 128.398 C 169.763 128.061,168.917 128.062,168.385 128.399 " stroke="none" fill="#ec0a88" fill-rule="evenodd"></path><path id="path4" d="M206.352 158.740 C 206.217 160.803,206.002 164.584,205.873 167.142 C 205.745 169.700,205.485 172.173,205.295 172.638 C 205.106 173.102,204.949 173.912,204.947 174.438 C 204.937 176.352,204.429 176.253,204.246 174.301 C 203.908 170.713,203.557 168.827,203.204 168.710 C 203.010 168.645,202.851 168.139,202.851 167.585 C 202.851 166.312,202.324 165.942,202.097 167.054 C 201.327 170.816,199.850 173.435,199.850 171.038 C 199.850 170.746,199.647 170.429,199.400 170.334 C 199.139 170.234,198.950 169.785,198.950 169.269 C 198.950 167.678,196.976 167.586,196.794 169.168 C 196.698 170.005,196.550 170.062,195.525 169.664 C 195.107 169.501,195.013 169.542,195.181 169.814 C 195.364 170.110,195.290 170.111,194.820 169.817 C 194.458 169.591,194.009 169.543,193.663 169.694 C 193.352 169.830,193.008 169.952,192.898 169.967 C 192.401 170.031,192.321 170.695,192.170 176.022 C 192.081 179.137,191.963 181.730,191.907 181.786 C 191.851 181.842,189.026 181.923,185.629 181.967 C 180.361 182.035,179.370 182.120,178.899 182.546 C 178.555 182.858,177.835 183.046,176.982 183.046 C 176.135 183.046,175.476 183.216,175.244 183.496 C 175.038 183.743,174.626 183.946,174.328 183.946 C 174.030 183.946,173.600 184.132,173.373 184.360 C 173.145 184.587,172.539 184.865,172.026 184.978 C 171.513 185.091,171.018 185.377,170.927 185.615 C 170.836 185.852,170.555 186.047,170.302 186.047 C 170.049 186.047,169.842 186.172,169.842 186.326 C 169.842 186.480,169.540 186.702,169.171 186.819 C 168.802 186.937,168.049 187.452,167.499 187.965 C 164.049 191.180,162.941 192.293,162.941 192.538 C 162.941 192.690,162.671 193.046,162.341 193.329 C 162.011 193.611,161.740 194.046,161.740 194.296 C 161.740 194.545,161.602 194.749,161.433 194.749 C 161.264 194.749,160.994 195.053,160.833 195.424 C 160.673 195.795,160.426 196.302,160.285 196.549 C 159.538 197.857,159.045 199.257,158.859 200.595 C 158.744 201.418,158.468 202.527,158.245 203.061 C 157.712 204.337,157.717 206.876,158.253 207.321 C 158.480 207.510,158.729 208.417,158.805 209.336 C 158.881 210.256,159.090 211.098,159.268 211.208 C 159.446 211.319,159.683 211.769,159.793 212.209 C 159.904 212.650,160.185 213.083,160.417 213.172 C 160.650 213.261,160.840 213.529,160.840 213.767 C 160.840 214.005,161.245 214.541,161.740 214.958 C 162.236 215.374,162.641 215.791,162.641 215.885 C 162.641 216.241,163.862 217.254,164.291 217.254 C 164.539 217.254,164.741 217.457,164.741 217.704 C 164.741 217.952,164.884 218.155,165.059 218.155 C 165.555 218.155,165.070 217.552,163.027 215.627 C 161.989 214.649,161.140 213.677,161.140 213.466 C 161.140 213.256,160.971 212.975,160.765 212.843 C 160.007 212.358,159.040 210.078,159.040 208.775 C 159.040 208.055,158.842 207.204,158.599 206.884 C 157.794 205.820,159.261 202.892,160.152 203.783 C 160.787 204.418,160.856 203.491,160.248 202.494 C 159.567 201.376,159.461 200.149,160.000 199.610 C 160.436 199.174,161.140 199.136,161.140 199.548 C 161.140 201.814,163.325 203.119,163.656 201.050 C 163.780 200.274,164.006 199.850,164.295 199.850 C 164.540 199.850,164.741 199.715,164.741 199.550 C 164.741 199.385,165.095 199.250,165.526 199.250 C 166.144 199.250,166.280 199.369,166.166 199.807 C 165.763 201.346,167.415 201.850,168.764 200.600 C 169.724 199.710,169.967 199.681,170.688 200.375 C 172.381 202.003,172.458 202.039,173.412 201.616 C 173.963 201.372,174.510 200.778,174.824 200.084 C 175.298 199.032,175.844 198.576,175.844 199.231 C 175.844 199.398,178.980 199.523,183.559 199.540 C 188.952 199.559,191.337 199.670,191.483 199.908 C 191.630 200.145,191.844 200.097,192.195 199.746 C 192.471 199.470,192.821 199.321,192.972 199.415 C 193.124 199.509,193.248 199.444,193.248 199.270 C 193.248 199.097,193.518 199.187,193.848 199.469 C 194.226 199.793,194.449 200.355,194.449 200.985 C 194.449 201.535,194.571 201.910,194.721 201.818 C 194.870 201.725,194.927 201.901,194.847 202.209 C 194.756 202.553,194.893 202.842,195.202 202.961 C 195.549 203.094,195.753 202.967,195.862 202.552 C 195.948 202.221,196.209 201.950,196.441 201.950 C 196.672 201.950,197.016 201.613,197.204 201.200 C 197.392 200.788,197.648 200.450,197.774 200.450 C 197.899 200.450,198.091 200.045,198.200 199.550 C 198.395 198.661,198.930 198.297,198.971 199.025 C 198.982 199.231,199.097 199.130,199.227 198.800 C 199.453 198.220,199.468 198.222,199.677 198.879 C 199.796 199.253,200.016 199.482,200.167 199.389 C 200.324 199.293,200.363 199.612,200.258 200.135 C 200.060 201.125,200.434 201.343,201.052 200.598 C 201.595 199.944,202.823 201.344,203.128 202.965 C 203.358 204.185,203.365 204.191,203.683 203.417 C 203.860 202.985,204.218 202.551,204.478 202.451 C 205.105 202.211,205.121 199.625,204.501 198.741 C 203.935 197.933,204.690 196.369,205.743 196.168 C 206.598 196.004,206.931 197.343,206.230 198.125 C 205.971 198.413,205.823 198.650,205.902 198.650 C 205.981 198.650,205.861 199.696,205.636 200.975 C 205.410 202.254,205.148 204.010,205.052 204.876 C 204.956 205.743,204.783 206.452,204.667 206.452 C 204.301 206.452,202.851 208.882,202.851 209.496 C 202.851 209.820,202.446 210.517,201.952 211.044 C 201.458 211.571,201.052 212.124,201.052 212.272 C 201.051 212.420,201.414 212.150,201.859 211.672 C 202.303 211.194,202.776 210.836,202.909 210.878 C 203.042 210.919,203.151 210.625,203.151 210.224 C 203.151 209.823,203.353 209.293,203.601 209.045 C 203.848 208.798,204.051 208.316,204.051 207.976 C 204.051 207.635,204.321 207.188,204.651 206.982 C 205.073 206.719,205.251 206.282,205.251 205.516 C 205.251 204.912,205.452 204.258,205.701 204.051 C 205.949 203.846,206.152 203.306,206.152 202.851 C 206.152 201.488,206.505 200.150,206.864 200.150 C 207.234 200.150,207.205 181.484,206.810 164.291 C 206.608 155.524,206.582 155.204,206.352 158.740 M159.480 156.355 C 159.407 156.474,159.615 156.641,159.943 156.727 C 160.302 156.821,160.540 156.735,160.540 156.511 C 160.540 156.115,159.704 155.992,159.480 156.355 M134.634 160.440 C 134.238 160.836,134.445 161.725,135.002 162.024 C 135.765 162.432,136.256 161.832,135.909 160.915 C 135.661 160.261,135.043 160.031,134.634 160.440 M233.364 160.465 C 233.292 160.589,233.342 160.960,233.475 161.290 C 233.686 161.814,233.719 161.786,233.737 161.065 C 233.758 160.251,233.618 160.026,233.364 160.465 M264.056 161.159 C 263.812 161.615,263.815 161.888,264.067 162.192 C 264.590 162.822,265.266 162.381,265.266 161.408 C 265.266 160.376,264.553 160.230,264.056 161.159 M238.206 162.514 C 237.968 162.946,238.401 164.341,238.648 163.941 C 238.765 163.751,238.748 163.291,238.610 162.917 C 238.471 162.544,238.290 162.362,238.206 162.514 M143.964 163.165 C 143.484 163.274,143.479 163.354,143.902 164.172 C 144.417 165.167,144.936 165.076,144.936 163.991 C 144.936 163.182,144.716 162.994,143.964 163.165 M146.137 163.991 C 146.137 164.404,146.272 164.741,146.437 164.741 C 146.602 164.741,146.737 164.404,146.737 163.991 C 146.737 163.578,146.602 163.241,146.437 163.241 C 146.272 163.241,146.137 163.578,146.137 163.991 M234.269 163.853 C 234.040 164.726,234.366 167.263,234.664 166.934 C 235.091 166.461,235.203 164.180,234.825 163.662 C 234.485 163.197,234.436 163.214,234.269 163.853 M253.436 164.041 C 253.330 164.316,253.383 164.681,253.554 164.851 C 253.767 165.065,253.863 164.908,253.863 164.351 C 253.863 163.425,253.714 163.317,253.436 164.041 M137.434 164.441 C 137.434 164.606,137.780 164.741,138.202 164.741 C 138.638 164.741,138.890 164.611,138.785 164.441 C 138.683 164.276,138.337 164.141,138.017 164.141 C 137.696 164.141,137.434 164.276,137.434 164.441 M261.215 164.441 C 261.110 164.611,261.362 164.741,261.798 164.741 C 262.220 164.741,262.566 164.606,262.566 164.441 C 262.566 164.276,262.304 164.141,261.983 164.141 C 261.663 164.141,261.317 164.276,261.215 164.441 M167.273 166.333 C 167.054 166.904,167.204 167.780,167.517 167.758 C 167.641 167.749,168.383 167.738,169.167 167.732 C 170.486 167.724,170.549 167.690,170.010 167.282 C 169.690 167.040,169.228 166.842,168.984 166.842 C 168.739 166.842,168.295 166.621,167.997 166.351 C 167.506 165.907,167.437 165.905,167.273 166.333 M135.334 166.542 C 135.334 166.707,136.017 166.842,136.852 166.842 C 137.788 166.842,138.299 166.727,138.185 166.542 C 138.083 166.377,137.399 166.242,136.666 166.242 C 135.934 166.242,135.334 166.377,135.334 166.542 M261.815 166.542 C 261.701 166.727,262.218 166.842,263.166 166.842 C 264.113 166.842,264.631 166.727,264.516 166.542 C 264.414 166.377,263.806 166.242,263.166 166.242 C 262.525 166.242,261.917 166.377,261.815 166.542 M141.056 166.915 C 138.534 167.149,138.068 167.275,138.421 167.628 C 138.955 168.162,146.737 167.920,146.737 167.369 C 146.737 166.905,146.640 166.873,146.109 167.157 C 145.504 167.480,144.055 167.315,143.739 166.887 C 143.655 166.773,142.448 166.785,141.056 166.915 M171.112 167.142 C 170.800 167.642,170.813 167.742,171.190 167.742 C 171.443 167.742,171.643 167.477,171.643 167.142 C 171.643 166.812,171.608 166.542,171.565 166.542 C 171.522 166.542,171.319 166.812,171.112 167.142 M253.263 167.367 C 253.263 167.976,255.821 168.180,259.265 167.847 C 261.187 167.661,261.202 167.653,260.315 167.264 C 259.210 166.779,257.105 166.736,255.553 167.167 C 254.723 167.398,254.299 167.397,254.068 167.166 C 253.590 166.689,253.263 166.771,253.263 167.367 M234.359 168.977 C 234.359 169.582,234.465 169.852,234.634 169.677 C 235.079 169.216,235.140 168.265,234.734 168.123 C 234.483 168.036,234.359 168.319,234.359 168.977 M227.092 177.569 C 227.018 177.858,226.969 186.669,226.982 197.149 L 227.007 216.204 229.557 216.222 L 232.108 216.239 229.632 216.135 L 227.157 216.031 227.157 211.166 C 227.158 204.482,227.526 188.716,227.677 188.868 C 227.745 188.936,227.868 191.131,227.950 193.745 C 228.031 196.360,228.139 198.837,228.189 199.250 C 228.239 199.662,228.297 200.582,228.318 201.293 C 228.342 202.070,228.477 202.512,228.657 202.401 C 228.828 202.295,228.967 202.577,228.981 203.058 C 228.994 203.522,229.073 203.731,229.157 203.524 C 229.240 203.317,229.432 203.223,229.583 203.317 C 229.734 203.410,229.857 203.094,229.857 202.615 C 229.857 202.125,230.120 201.506,230.458 201.200 C 230.788 200.902,231.062 200.307,231.067 199.878 C 231.073 199.450,231.260 198.858,231.485 198.562 C 232.254 197.547,232.597 200.456,232.655 208.486 C 232.684 212.615,232.823 215.923,232.963 215.838 C 233.365 215.592,232.856 177.541,232.447 177.274 C 231.673 176.770,227.234 177.015,227.092 177.569 M230.458 179.113 C 230.458 179.718,229.949 180.041,229.332 179.826 C 229.126 179.754,228.957 179.515,228.957 179.295 C 228.957 179.075,228.788 178.827,228.582 178.743 C 228.376 178.660,228.713 178.581,229.332 178.568 C 230.245 178.549,230.458 178.652,230.458 179.113 M238.302 184.345 C 238.046 184.653,237.974 188.004,238.031 196.884 L 238.110 209.002 239.910 209.024 L 241.710 209.045 239.985 208.934 L 238.260 208.824 238.289 204.412 C 238.313 200.909,238.689 197.065,238.830 198.887 C 238.905 199.856,239.596 200.102,240.099 199.338 L 240.589 198.594 241.062 199.543 C 241.322 200.065,241.623 201.270,241.731 202.222 C 241.935 204.023,242.733 204.744,242.788 203.176 C 242.803 202.749,242.988 200.578,243.200 198.350 L 243.585 194.299 243.643 199.700 C 243.713 206.156,243.814 208.205,244.076 208.467 C 244.334 208.725,244.266 186.850,244.005 185.296 L 243.802 184.096 241.227 184.010 C 239.300 183.946,238.563 184.030,238.302 184.345 M216.176 187.292 C 215.897 187.743,215.616 204.361,215.870 205.374 C 216.132 206.415,220.672 206.583,221.575 205.586 C 222.277 204.809,222.272 188.733,221.569 187.622 C 221.083 186.854,216.616 186.581,216.176 187.292 M165.641 195.181 C 165.641 196.099,165.279 196.339,164.619 195.856 C 163.979 195.389,164.283 194.449,165.073 194.449 C 165.476 194.449,165.641 194.662,165.641 195.181 M171.169 195.549 C 171.947 196.694,171.948 197.247,171.170 196.949 C 170.921 196.853,170.791 196.701,170.882 196.610 C 170.973 196.519,170.675 196.199,170.220 195.899 C 169.765 195.598,169.576 195.352,169.800 195.351 C 170.038 195.350,170.135 195.162,170.034 194.899 C 169.705 194.041,170.424 194.454,171.169 195.549 M162.518 198.060 C 162.918 198.212,163.210 198.496,163.168 198.692 C 163.126 198.887,163.428 199.132,163.841 199.237 C 164.465 199.395,164.504 199.461,164.073 199.626 C 162.917 200.071,161.437 199.042,161.475 197.820 C 161.494 197.204,161.573 196.943,161.650 197.241 C 161.728 197.540,162.118 197.908,162.518 198.060 M220.748 198.202 C 221.096 199.109,220.568 200.883,220.129 200.282 C 219.905 199.976,219.543 199.829,219.270 199.933 C 218.261 200.320,217.957 199.239,218.856 198.465 C 219.810 197.645,220.497 197.549,220.748 198.202 M218.136 202.042 C 218.476 201.953,218.755 201.761,218.755 201.615 C 218.755 200.974,219.862 201.441,220.445 202.328 C 222.106 204.854,221.646 205.701,218.615 205.701 L 216.355 205.701 216.356 203.001 L 216.356 200.300 216.937 201.252 C 217.373 201.967,217.672 202.164,218.136 202.042 M163.541 203.299 C 163.541 204.040,163.589 204.055,165.003 203.773 C 165.064 203.761,164.964 203.570,164.781 203.348 C 164.597 203.127,164.535 202.857,164.644 202.748 C 164.752 202.639,164.549 202.551,164.191 202.551 C 163.698 202.551,163.541 202.732,163.541 203.299 M218.155 204.633 C 218.155 205.137,218.687 205.261,218.864 204.799 C 218.968 204.527,218.863 204.351,218.595 204.351 C 218.353 204.351,218.155 204.478,218.155 204.633 M168.567 206.738 C 167.810 207.479,167.910 207.652,169.092 207.652 C 170.257 207.652,170.406 207.376,169.617 206.684 C 169.144 206.269,169.041 206.274,168.567 206.738 M199.972 213.503 C 199.358 214.072,199.282 214.254,199.656 214.254 C 199.928 214.254,200.150 214.100,200.150 213.912 C 200.150 213.723,200.386 213.390,200.675 213.171 C 200.964 212.952,201.106 212.768,200.991 212.763 C 200.875 212.757,200.417 213.091,199.972 213.503 M197.193 216.311 C 196.887 216.617,196.294 216.953,195.875 217.058 C 195.457 217.163,195.027 217.479,194.919 217.760 C 194.735 218.240,194.757 218.240,195.285 217.763 C 195.593 217.483,196.038 217.252,196.273 217.249 C 196.507 217.246,197.017 216.909,197.406 216.499 C 198.220 215.641,198.030 215.473,197.193 216.311 M166.092 218.755 C 166.390 219.085,166.918 219.339,167.263 219.320 C 167.868 219.287,167.869 219.280,167.292 219.137 C 166.962 219.055,166.584 218.800,166.452 218.571 C 166.320 218.342,166.062 218.155,165.880 218.155 C 165.698 218.155,165.793 218.425,166.092 218.755 M193.548 218.605 C 193.343 218.852,192.841 219.055,192.434 219.055 C 192.026 219.055,191.349 219.325,190.930 219.655 C 190.422 220.054,190.318 220.255,190.620 220.255 C 190.870 220.255,191.242 220.053,191.448 219.805 C 191.653 219.557,192.122 219.355,192.489 219.355 C 192.856 219.355,193.468 219.085,193.848 218.755 C 194.229 218.425,194.401 218.155,194.231 218.155 C 194.061 218.155,193.754 218.357,193.548 218.605 M168.118 219.655 C 168.184 219.902,168.566 220.130,168.966 220.160 C 169.539 220.204,169.565 220.181,169.092 220.051 C 168.762 219.960,168.381 219.732,168.244 219.545 C 168.080 219.320,168.037 219.358,168.118 219.655 M170.250 220.705 C 170.497 220.953,170.870 221.155,171.079 221.155 C 171.291 221.155,171.202 220.962,170.875 220.715 C 170.111 220.137,169.674 220.130,170.250 220.705 M188.747 220.683 C 188.747 220.919,188.511 221.173,188.222 221.249 C 187.738 221.375,187.737 221.388,188.211 221.421 C 188.495 221.440,188.871 221.185,189.047 220.855 C 189.265 220.448,189.268 220.255,189.058 220.255 C 188.887 220.255,188.747 220.448,188.747 220.683 M173.743 221.375 C 174.156 221.451,174.602 221.703,174.734 221.934 C 174.902 222.230,175.485 222.339,176.684 222.302 L 178.395 222.247 176.930 222.133 C 176.124 222.071,175.270 221.825,175.033 221.587 C 174.795 221.350,174.239 221.174,173.797 221.196 L 172.993 221.237 173.743 221.375 M183.346 221.351 C 183.098 221.433,182.626 221.617,182.296 221.762 C 181.965 221.906,181.425 222.083,181.095 222.155 C 180.765 222.227,181.039 222.302,181.704 222.321 C 182.368 222.340,183.182 222.166,183.513 221.935 C 183.843 221.704,184.447 221.452,184.855 221.376 C 185.505 221.254,185.485 221.235,184.696 221.220 C 184.201 221.210,183.593 221.269,183.346 221.351 " stroke="none" fill="#f75170" fill-rule="evenodd"></path></g></svg>