<svg id="svg" version="1.1" xmlns="http://www.w3.org/2000/svg" xmlns:xlink="http://www.w3.org/1999/xlink" width="400" height="400" viewBox="0, 0, 400,400"><g id="svgg"><path id="path0" d="M133.203 100.824 C 84.542 106.331,58.818 160.802,85.444 201.953 C 90.942 210.450,100.182 219.117,108.073 223.178 L 109.311 223.815 111.314 221.112 C 116.931 213.536,126.700 207.582,135.411 206.427 L 137.305 206.175 137.305 197.912 C 137.305 163.379,159.125 138.617,195.243 132.164 C 196.389 131.960,196.395 131.974,193.359 127.648 C 180.322 109.069,156.036 98.239,133.203 100.824 " stroke="none" fill="#fbce04" fill-rule="evenodd"></path><path id="path1" d="M104.492 25.270 C 75.038 26.952,56.014 36.006,41.049 55.463 C 27.738 72.769,25.365 84.092,25.104 131.543 L 24.940 161.328 49.724 161.328 L 74.507 161.328 74.965 157.715 C 80.576 113.410,128.344 87.517,168.750 106.878 C 178.853 111.719,187.769 119.283,194.145 128.422 L 196.478 131.765 201.461 131.678 C 222.642 131.311,242.754 141.097,255.376 157.910 L 257.941 161.328 316.501 161.328 L 375.060 161.328 374.896 131.543 C 374.636 84.209,372.461 73.601,359.431 56.089 C 346.228 38.345,329.038 28.999,303.906 25.899 C 299.059 25.301,114.160 24.718,104.492 25.270 M153.223 374.902 C 178.950 374.958,221.050 374.958,246.777 374.902 C 272.505 374.847,251.455 374.801,200.000 374.801 C 148.545 374.801,127.495 374.847,153.223 374.902 " stroke="none" fill="#318df1" fill-rule="evenodd"></path><path id="path2" d="M26.344 307.031 C 26.433 307.354,26.620 308.584,26.760 309.766 C 28.594 325.267,35.915 340.127,47.456 351.779 C 60.893 365.343,75.023 371.784,96.234 374.011 C 104.838 374.915,295.158 374.913,303.820 374.009 C 323.959 371.908,336.669 366.379,350.927 353.516 C 362.614 342.971,371.658 324.949,373.273 308.984 C 373.371 308.018,373.514 307.051,373.590 306.836 C 373.682 306.576,315.636 306.445,199.955 306.445 C 45.678 306.445,26.199 306.511,26.344 307.031 " stroke="none" fill="#75e3fc" fill-rule="evenodd"></path><path id="path3" d="M194.141 132.289 C 161.361 136.507,137.305 164.282,137.305 197.912 L 137.305 206.175 135.411 206.427 C 103.200 210.699,92.628 255.084,119.312 274.011 C 130.013 281.601,126.647 281.323,206.250 281.173 L 271.680 281.050 275.898 280.156 C 316.935 271.454,333.398 223.085,305.998 191.718 C 296.491 180.836,283.249 174.549,267.650 173.510 L 263.621 173.242 262.572 170.898 C 253.825 151.350,236.387 137.421,215.326 133.162 C 211.229 132.334,198.023 131.789,194.141 132.289 " stroke="none" fill="#f4faf6" fill-rule="evenodd"></path><path id="path4" d="M319.652 227.148 C 319.654 228.437,319.727 228.918,319.814 228.216 C 319.901 227.514,319.899 226.459,319.810 225.872 C 319.721 225.285,319.650 225.859,319.652 227.148 M25.136 276.072 C 25.282 291.567,25.518 300.229,25.860 302.734 L 26.367 306.445 199.782 306.543 C 322.306 306.613,373.272 306.764,373.455 307.059 C 373.597 307.289,373.726 306.805,373.743 305.984 C 373.760 305.164,373.864 303.965,373.974 303.320 C 374.651 299.370,374.997 288.837,374.998 272.168 L 375.000 253.125 343.945 253.125 C 326.865 253.125,312.891 253.270,312.891 253.447 C 312.891 253.624,311.855 255.338,310.590 257.256 C 302.496 269.520,288.830 278.275,274.035 280.675 C 268.534 281.567,138.441 281.532,134.109 280.637 C 120.729 277.873,109.879 268.449,105.662 255.927 L 104.784 253.320 64.852 253.221 L 24.919 253.121 25.136 276.072 " stroke="none" fill="#68d1fb" fill-rule="evenodd"></path><path id="path5" d="M259.113 163.672 C 259.972 165.068,261.439 167.837,262.372 169.824 L 264.068 173.438 267.483 173.439 C 305.214 173.456,331.592 216.829,314.483 250.721 L 313.270 253.125 344.135 253.125 L 375.000 253.125 375.000 207.229 L 375.000 161.333 316.275 161.233 L 257.550 161.133 259.113 163.672 M25.000 207.227 L 25.000 253.125 64.886 253.125 C 99.898 253.125,104.744 253.055,104.550 252.548 C 102.415 246.985,103.847 234.389,107.428 227.239 C 108.881 224.338,108.974 223.985,108.379 223.633 C 87.352 211.187,75.465 191.630,74.724 168.262 L 74.504 161.328 49.752 161.328 L 25.000 161.328 25.000 207.227 " stroke="none" fill="#56bbf7" fill-rule="evenodd"></path><path id="path6" d="M92.578 211.450 C 92.578 211.518,93.149 212.089,93.848 212.720 L 95.117 213.867 93.970 212.598 C 92.900 211.414,92.578 211.149,92.578 211.450 " stroke="none" fill="#94c9d9" fill-rule="evenodd"></path><path id="path7" d="M201.465 131.923 C 202.163 132.010,203.306 132.010,204.004 131.923 C 204.702 131.837,204.131 131.766,202.734 131.766 C 201.338 131.766,200.767 131.837,201.465 131.923 M248.828 150.977 C 249.995 152.158,251.038 153.125,251.145 153.125 C 251.253 153.125,250.386 152.158,249.219 150.977 C 248.052 149.795,247.009 148.828,246.902 148.828 C 246.794 148.828,247.661 149.795,248.828 150.977 M103.622 243.750 C 103.622 244.717,103.698 245.112,103.791 244.629 C 103.884 244.146,103.884 243.354,103.791 242.871 C 103.698 242.388,103.622 242.783,103.622 243.750 M303.699 265.332 L 301.367 267.773 303.809 265.442 C 305.151 264.160,306.250 263.061,306.250 263.001 C 306.250 262.712,305.864 263.064,303.699 265.332 M114.437 270.020 C 116.056 271.744,116.406 272.054,116.406 271.761 C 116.406 271.698,115.571 270.863,114.551 269.906 L 112.695 268.164 114.437 270.020 M268.848 281.129 C 269.224 281.227,269.839 281.227,270.215 281.129 C 270.591 281.030,270.283 280.950,269.531 280.950 C 268.779 280.950,268.472 281.030,268.848 281.129 " stroke="none" fill="#b8dcfc" fill-rule="evenodd"></path><path id="path8" d="M134.082 100.660 C 134.458 100.758,135.073 100.758,135.449 100.660 C 135.825 100.562,135.518 100.481,134.766 100.481 C 134.014 100.481,133.706 100.562,134.082 100.660 M145.020 100.660 C 145.396 100.758,146.011 100.758,146.387 100.660 C 146.763 100.562,146.455 100.481,145.703 100.481 C 144.951 100.481,144.644 100.562,145.020 100.660 M74.700 160.547 C 74.700 161.299,74.780 161.606,74.879 161.230 C 74.977 160.854,74.977 160.239,74.879 159.863 C 74.780 159.487,74.700 159.795,74.700 160.547 M74.700 171.484 C 74.700 172.236,74.780 172.544,74.879 172.168 C 74.977 171.792,74.977 171.177,74.879 170.801 C 74.780 170.425,74.700 170.732,74.700 171.484 " stroke="none" fill="#78a4a8" fill-rule="evenodd"></path></g></svg>